<?xml version="1.0" standalone="no"?>
<!DOCTYPE svg PUBLIC "-//W3C//DTD SVG 1.1//EN" "http://www.w3.org/Graphics/SVG/1.1/DTD/svg11.dtd" >
<svg>
<metadata>
Created by FontForge 20120731 at Sun Jul 28 10:30:05 2013
 By Stefan Warting
Designed in 1991-93 by Eric Spiekermann. Based on the typeface comissioned by the German Post Office (Bundespost) in 1984 as an exclusive corporate font. However the face was not accepted by the customer and the hole project was cancelled. In 1989 its artwork was digitized and the new face of 3 styles were created by Just van Rossum. It was named FF Meta after Meta Studio in which the new typeface was used exclusively. Then FontShop became to distribute FF Meta and some extra weights together with corresponding italics and small caps were added by Luk(as) de Groot. The face is very popular, especially in the US where it has been used for the setting of ID magazine, the leading publication for industrial and communication design. Meta has been hailed as "the typeface for the nineties"; young designers seem to appreciate its rugged charm, which owes alot to the detailed requirements of small type on bad paper. Cyrillic versions developed for ParaType in 2000 by Tagir Safayev and Olga Chayeva.
</metadata>
<defs>
<font id="MetaNormalC" horiz-adv-x="457" >
  <font-face 
    font-family="MetaNormalC"
    font-weight="400"
    font-stretch="normal"
    units-per-em="1000"
    panose-1="2 0 5 6 5 0 0 2 0 4"
    ascent="800"
    descent="-200"
    x-height="498"
    cap-height="686"
    bbox="-30 -208 892 906"
    underline-thickness="50"
    underline-position="-50"
    stemh="60"
    stemv="78"
    unicode-range="U+0020-F6D4"
  />
<missing-glyph horiz-adv-x="230" 
 />
    <glyph glyph-name=".notdef" horiz-adv-x="230" 
 />
    <glyph glyph-name="space" unicode=" " horiz-adv-x="230" 
 />
    <glyph glyph-name="exclam" unicode="!" horiz-adv-x="282" 
d="M189 699l-19 -501h-60l-19 488zM202 56c0 -35 -27 -63 -61 -63s-61 28 -61 62s27 61 61 61s61 -27 61 -60z" />
    <glyph glyph-name="quotedbl" unicode="&#x22;" horiz-adv-x="399" 
d="M309 468h-72v240h72v-240zM162 468h-72v240h72v-240z" />
    <glyph glyph-name="numbersign" unicode="#" horiz-adv-x="556" 
d="M526 431h-107l-21 -152h98v-66h-108l-30 -213h-67l30 213h-126l-30 -213h-67l30 213h-98v66h108l20 152h-98v66h108l30 211h67l-30 -211h126l30 211h67l-30 -211h98v-66zM352 431h-126l-21 -152h126z" />
    <glyph glyph-name="dollar" unicode="$" horiz-adv-x="569" 
d="M320 394l33 -10c61 -19 93 -37 121 -69s45 -78 45 -121c0 -98 -85 -189 -199 -204v-97h-59v94c-79 0 -146 22 -211 62l36 64c55 -39 110 -59 175 -59v269l-25 8c-62 20 -96 34 -122 61c-28 30 -43 68 -43 112c0 107 75 183 190 195v84h59v-83c63 -5 123 -26 180 -65
l-36 -59c-57 37 -96 53 -144 57v-239zM261 412v219c-64 -10 -101 -50 -101 -110c0 -52 29 -83 101 -109zM320 304v-246c64 11 108 62 108 124c0 57 -36 97 -108 122z" />
    <glyph glyph-name="percent" unicode="%" horiz-adv-x="848" 
d="M40 521c0 106 60 170 160 170c111 0 162 -72 162 -176c0 -102 -61 -166 -161 -166s-161 66 -161 172zM108 529c0 -82 25 -125 96 -125c57 0 91 37 91 107c0 59 -11 125 -96 125c-64 0 -91 -39 -91 -107zM626 681l-333 -681h-66l333 681h66zM647 -10
c-100 0 -161 66 -161 172s60 170 160 170c111 0 162 -72 162 -176c0 -102 -61 -166 -161 -166zM741 152c0 59 -11 125 -96 125c-64 0 -91 -39 -91 -107c0 -82 25 -125 96 -125c57 0 91 37 91 107z" />
    <glyph glyph-name="ampersand" unicode="&#x26;" horiz-adv-x="674" 
d="M659 0h-104l-67 65c-40 -49 -116 -80 -196 -80c-143 0 -232 75 -232 185c0 87 53 132 140 174c-65 58 -97 104 -97 154c0 92 84 158 178 158c99 0 184 -55 184 -154c0 -77 -51 -116 -143 -165l161 -159c18 38 18 101 17 154h69c0 -120 -15 -163 -37 -206zM379 503
c0 56 -40 96 -97 96c-47 0 -95 -27 -95 -91c0 -38 15 -63 90 -128c78 37 102 75 102 123zM445 110l-198 193c-68 -32 -101 -77 -101 -139c0 -70 56 -118 148 -118c67 0 125 29 151 64z" />
    <glyph glyph-name="quotesingle" unicode="'" horiz-adv-x="252" 
d="M162 468h-72v240h72v-240z" />
    <glyph glyph-name="parenleft" unicode="(" horiz-adv-x="315" 
d="M345 -115l-22 -40c-84 32 -155 108 -193 206c-30 78 -40 191 -40 270c0 173 36 271 95 344c37 46 89 86 138 105l19 -38c-67 -40 -121 -90 -146 -179c-17 -61 -26 -142 -26 -230c0 -128 13 -244 60 -326c28 -49 62 -83 115 -112z" />
    <glyph glyph-name="parenright" unicode=")" horiz-adv-x="315" 
d="M-30 732l22 40c84 -32 155 -108 193 -206c30 -78 40 -191 40 -270c0 -173 -36 -271 -95 -344c-37 -46 -89 -86 -138 -105l-19 38c67 40 121 90 146 179c17 61 26 142 26 230c0 128 -13 244 -60 326c-28 49 -62 83 -115 112z" />
    <glyph glyph-name="asterisk" unicode="*" horiz-adv-x="462" 
d="M422 549l-141 -48l89 -119l-49 -38l-90 123l-87 -123l-50 38l87 119l-141 48l19 58l142 -48v149h60v-149l142 48z" />
    <glyph glyph-name="plus" unicode="+" horiz-adv-x="528" 
d="M478 214h-178v-178h-72v178h-178v72h178v178h72v-178h178v-72z" />
    <glyph glyph-name="comma" unicode="," horiz-adv-x="280" 
d="M88 -143l-28 44c39 17 62 51 67 89c-17 -4 -34 0 -48 16c-13 14 -18 32 -18 47c0 40 32 72 70 72c39 0 79 -33 79 -96c0 -42 -22 -82 -38 -103s-47 -50 -84 -69z" />
    <glyph glyph-name="hyphen" unicode="-" horiz-adv-x="291" 
d="M241 229h-191v76h191v-76z" />
    <glyph glyph-name="period" unicode="." horiz-adv-x="274" 
d="M204 56c0 -38 -30 -69 -66 -69c-38 0 -68 31 -68 69c0 37 29 66 66 66c38 0 68 -29 68 -66z" />
    <glyph glyph-name="slash" unicode="/" horiz-adv-x="445" 
d="M385 757l-259 -905h-66l259 905h66z" />
    <glyph glyph-name="zero" unicode="0" horiz-adv-x="568" 
d="M508 254c0 -162 -88 -261 -223 -261c-143 0 -225 101 -225 265c0 162 88 261 223 261c143 0 225 -101 225 -265zM426 241c0 150 -43 213 -144 213c-91 0 -140 -57 -140 -183c0 -150 43 -213 144 -213c91 0 140 57 140 183z" />
    <glyph glyph-name="one" unicode="1" horiz-adv-x="424" 
d="M374 0h-263v63h92v349c-43 -28 -89 -45 -136 -64l-17 43l171 116h61v-444h92v-63z" />
    <glyph glyph-name="two" unicode="2" horiz-adv-x="542" 
d="M472 64l-16 -64h-382v63c23 19 49 40 77 60l121 101c76 59 84 108 84 135s-7 51 -31 70c-22 18 -46 21 -75 21c-20 0 -83 -3 -158 -65l-32 40c44 41 117 93 210 93c54 0 100 -15 131 -40c37 -30 48 -70 48 -104c0 -28 -7 -59 -29 -93c-34 -53 -103 -105 -173 -156
l-90 -65c53 5 74 4 103 4h212z" />
    <glyph glyph-name="three" unicode="3" horiz-adv-x="516" 
d="M154 180v56h30c45 0 100 -2 133 23c21 16 36 45 36 83c0 41 -20 66 -34 79c-23 20 -53 29 -88 29c-30 0 -56 -5 -83 -17c-22 -10 -51 -26 -73 -42l-35 41c24 19 61 43 88 56c36 17 79 27 120 27c54 0 101 -14 139 -48c21 -19 51 -54 51 -115c0 -70 -47 -128 -121 -148
c81 -16 139 -80 139 -153c0 -61 -38 -134 -113 -179c-69 -41 -158 -54 -227 -54c-18 0 -32 1 -49 3l-18 53c26 -3 45 -3 62 -3c52 0 118 7 172 42c57 36 85 92 85 145c0 32 -10 66 -44 92c-40 30 -84 30 -124 30h-46z" />
    <glyph glyph-name="four" unicode="4" horiz-adv-x="535" 
d="M352 321l62 19v-201c0 -28 1 -42 -1 -78c16 2 26 2 33 2h49v-63h-55c-9 0 -14 0 -27 1c1 -14 1 -23 1 -29v-148l-77 -23v160c0 10 0 21 1 40c-19 -1 -29 -1 -40 -1h-258v62l230 450h87l-191 -374c-12 -26 -27 -52 -44 -79c18 3 29 3 39 3h177v29c0 6 0 34 4 90z" />
    <glyph glyph-name="five" unicode="5" horiz-adv-x="492" 
d="M70 161l32 337h296l-12 -66h-213l-17 -194c27 5 50 5 68 5c67 0 111 -19 145 -47c29 -24 63 -66 63 -143c0 -46 -15 -111 -75 -164c-59 -52 -142 -74 -214 -74c-38 0 -59 5 -74 10l-14 60c14 -7 35 -14 75 -14c54 0 113 16 158 57c55 49 58 107 58 125
c0 33 -11 65 -27 84c-17 21 -54 46 -122 46c-43 0 -87 -7 -127 -22z" />
    <glyph glyph-name="six" unicode="6" horiz-adv-x="565" 
d="M426 692l19 -50c-100 -32 -193 -100 -238 -173c-20 -33 -38 -82 -47 -122c44 36 99 51 146 51c45 0 96 -17 133 -48c33 -28 66 -76 66 -149c0 -125 -100 -218 -220 -218c-52 0 -113 16 -161 72c-39 46 -64 114 -64 200c0 133 56 215 96 263c57 67 146 139 270 174z
M155 285c-3 -21 -3 -37 -3 -51c0 -67 10 -109 35 -142c28 -37 65 -48 98 -48c30 0 71 10 99 47c30 40 31 97 31 108c0 53 -18 85 -36 104c-20 21 -52 35 -89 35c-46 0 -97 -21 -135 -53z" />
    <glyph glyph-name="seven" unicode="7" horiz-adv-x="495" 
d="M465 498l-19 -79c-41 -55 -83 -118 -122 -185c-48 -82 -80 -149 -95 -183c-31 -69 -54 -131 -72 -208l-96 -25c15 70 33 118 60 179c24 54 52 112 80 164c81 150 142 226 185 273c-46 -2 -75 -2 -92 -2h-264l19 66h416z" />
    <glyph glyph-name="eight" unicode="8" horiz-adv-x="568" 
d="M508 180c0 -104 -87 -194 -226 -194c-143 0 -222 83 -222 182s78 152 141 176c-75 35 -118 91 -118 155c0 98 76 166 211 166c115 0 192 -61 192 -152c0 -86 -65 -130 -135 -161c82 -37 157 -67 157 -172zM410 507c0 61 -49 101 -126 101c-76 0 -125 -40 -125 -102
c0 -40 18 -84 136 -130c81 43 115 83 115 131zM426 161c0 28 -7 56 -24 74c-23 24 -64 45 -152 85c-61 -33 -110 -67 -110 -147c0 -79 59 -131 148 -131c82 0 138 49 138 119z" />
    <glyph glyph-name="nine" unicode="9" horiz-adv-x="563" 
d="M90 -207l-40 48c72 7 164 57 227 111s97 116 116 170c-30 -22 -83 -42 -128 -42c-116 0 -200 87 -200 209c0 127 98 224 224 224c120 0 214 -92 214 -244c0 -112 -48 -229 -126 -319c-79 -92 -207 -148 -287 -157zM417 268c0 109 -53 183 -133 183
c-79 0 -132 -65 -132 -160s47 -151 123 -151c47 0 88 16 134 55c5 23 8 46 8 73z" />
    <glyph glyph-name="colon" unicode=":" horiz-adv-x="294" 
d="M214 372c0 -38 -30 -68 -67 -68s-67 29 -67 66c0 38 30 69 68 69c36 0 66 -30 66 -67zM214 56c0 -38 -30 -68 -68 -68c-37 0 -66 30 -66 67c0 38 30 68 68 68c36 0 66 -30 66 -67z" />
    <glyph glyph-name="semicolon" unicode=";" horiz-adv-x="310" 
d="M215 372c0 -38 -30 -69 -67 -69s-68 32 -68 71c0 35 30 64 67 64s68 -30 68 -66zM230 29c0 -35 -14 -71 -38 -103c-20 -26 -53 -52 -84 -69l-28 44c39 19 62 50 67 89c0 0 -4 -1 -11 -1c-30 0 -55 29 -55 64c0 40 31 72 70 72c46 0 79 -40 79 -96z" />
    <glyph glyph-name="less" unicode="&#x3c;" horiz-adv-x="317" 
d="M277 86l-66 -43l-191 257l191 257l66 -43l-160 -214z" />
    <glyph glyph-name="equal" unicode="=" horiz-adv-x="622" 
d="M572 348h-522v66h522v-66zM572 192h-522v66h522v-66z" />
    <glyph glyph-name="greater" unicode="&#x3e;" horiz-adv-x="318" 
d="M298 300l-192 -257l-66 43l160 214l-160 214l66 43z" />
    <glyph glyph-name="question" unicode="?" horiz-adv-x="428" 
d="M73 581l-33 55c47 36 119 59 184 59c92 0 154 -58 154 -147c0 -98 -89 -149 -105 -162c-33 -27 -50 -65 -50 -112c0 -16 2 -34 6 -52h-67c-6 24 -9 46 -9 68c0 50 16 96 56 133c39 37 90 52 90 121c0 49 -38 83 -90 83c-48 0 -87 -16 -136 -46zM270 55
c0 -38 -30 -69 -67 -69s-68 31 -68 69c0 37 30 67 67 67s68 -30 68 -67z" />
    <glyph glyph-name="at" unicode="@" horiz-adv-x="911" 
d="M583 -91l13 -54c-39 -13 -95 -20 -150 -20c-207 0 -386 131 -386 369c0 236 170 421 404 421c218 0 387 -137 387 -348c0 -177 -102 -291 -217 -291c-79 0 -106 48 -106 95c0 7 1 15 2 22c-30 -53 -93 -105 -161 -105c-54 0 -111 46 -111 143c0 160 91 312 264 312
c48 0 88 -13 123 -32c-6 -21 -17 -63 -23 -92l-38 -181c-4 -21 -7 -38 -7 -52c0 -41 19 -57 60 -57c81 0 143 106 143 238c0 165 -127 294 -316 294c-202 0 -332 -178 -332 -367c0 -187 140 -314 314 -314c54 0 104 8 137 19zM526 198l40 189c-13 8 -30 14 -51 14
c-135 0 -187 -150 -187 -264c0 -58 21 -80 62 -80c47 0 116 46 136 141z" />
    <glyph glyph-name="A" unicode="A" horiz-adv-x="573" 
d="M568 0h-93l-65 211h-256l-66 -211h-83l229 686h107zM389 278l-105 336l-108 -336h213z" />
    <glyph glyph-name="B" unicode="B" horiz-adv-x="599" 
d="M90 686h161c62 0 131 0 187 -38c42 -29 72 -78 72 -134c0 -31 -9 -73 -47 -108c-30 -28 -66 -39 -76 -42c32 -5 66 -18 90 -36c41 -31 62 -83 62 -140c0 -61 -25 -107 -54 -134c-55 -52 -129 -54 -218 -54h-177v686zM169 390h119c22 0 64 -1 96 27c20 18 35 49 35 86
c0 38 -16 70 -40 90c-36 29 -78 26 -113 26h-97v-229zM169 67h146c31 0 73 3 102 29c18 16 36 46 36 93c0 58 -23 92 -45 109c-33 25 -79 25 -118 25h-121v-256z" />
    <glyph glyph-name="C" unicode="C" horiz-adv-x="563" 
d="M489 99l44 -55c-65 -42 -135 -56 -191 -56c-102 0 -166 53 -200 92c-52 60 -82 149 -82 261c0 119 39 209 93 269c62 68 135 88 199 88c37 0 105 -7 169 -56l-44 -53c-50 37 -96 43 -130 43c-67 0 -130 -29 -169 -121c-25 -59 -29 -117 -29 -182c0 -38 1 -93 22 -145
c20 -51 73 -129 184 -129c30 0 80 4 134 44z" />
    <glyph glyph-name="D" unicode="D" horiz-adv-x="623" 
d="M90 686h161c73 0 134 -6 196 -53c97 -72 116 -194 116 -291c0 -132 -37 -208 -78 -256c-65 -76 -141 -86 -216 -86h-179v686zM172 67h82c68 0 130 4 174 73c16 25 46 85 46 206c0 83 -15 156 -59 210c-50 61 -108 63 -161 63h-82v-552z" />
    <glyph glyph-name="E" unicode="E" horiz-adv-x="509" 
d="M474 0h-384v686h374l-11 -68h-281v-226h235v-70h-235v-252h302v-70z" />
    <glyph glyph-name="F" unicode="F" horiz-adv-x="431" 
d="M451 686l-13 -68h-265v-225h220v-67h-220v-326h-83v686h361z" />
    <glyph glyph-name="G" unicode="G" horiz-adv-x="629" 
d="M549 360v-320c-74 -45 -150 -52 -193 -52c-114 0 -178 51 -211 87c-70 76 -85 176 -85 266c0 146 43 228 106 288c37 35 86 69 179 69c46 0 118 -8 188 -69l-37 -51c-32 24 -84 53 -149 53c-120 0 -156 -79 -171 -119c-25 -69 -27 -139 -27 -174c0 -159 42 -282 214 -282
c56 0 88 14 109 27v209h-138l-16 68h231z" />
    <glyph glyph-name="H" unicode="H" horiz-adv-x="633" 
d="M543 0h-82v332h-289v-332h-82v686h82v-287h289v287h82v-686z" />
    <glyph glyph-name="I" unicode="I" horiz-adv-x="262" 
d="M172 0h-82v686h82v-686z" />
    <glyph glyph-name="J" unicode="J" horiz-adv-x="269" 
d="M179 686v-569c0 -74 -2 -117 -25 -157c-20 -35 -56 -67 -116 -88l-40 51c35 14 66 39 82 67c14 24 17 54 17 125v571h82z" />
    <glyph glyph-name="K" unicode="K" horiz-adv-x="545" 
d="M545 686l-276 -322l274 -364h-105l-262 363l264 323h105zM172 0h-82v686h82v-686z" />
    <glyph glyph-name="L" unicode="L" horiz-adv-x="453" 
d="M443 69l-11 -69h-342v686h82v-617h271z" />
    <glyph glyph-name="M" unicode="M" horiz-adv-x="796" 
d="M125 686h120l125 -448c3 -10 10 -38 26 -120h2c6 44 15 80 24 112l130 456h120l59 -686h-82l-40 503c-1 15 -2 31 -5 118h-2c-6 -38 -15 -73 -25 -109l-147 -512h-70l-136 487c-13 45 -25 96 -34 134h-2c3 -74 -3 -99 -6 -133l-38 -488h-79z" />
    <glyph glyph-name="N" unicode="N" horiz-adv-x="636" 
d="M90 686h95l228 -438c23 -45 46 -97 64 -144c-4 62 -9 156 -9 209l-3 373h81v-686h-86l-220 420c-26 50 -56 113 -78 165c4 -57 9 -139 9 -187l4 -398h-85v686z" />
    <glyph glyph-name="O" unicode="O" horiz-adv-x="672" 
d="M336 698c60 0 140 -19 199 -92c32 -40 77 -118 77 -263s-45 -223 -77 -263c-59 -73 -139 -92 -199 -92s-140 19 -199 92c-32 40 -77 118 -77 263s45 223 77 263c59 73 139 92 199 92zM336 634c-62 0 -111 -26 -144 -82c-18 -30 -40 -87 -40 -209s22 -179 40 -209
c33 -56 82 -82 144 -82s111 26 144 82c18 30 40 87 40 209s-22 179 -40 209c-33 56 -82 82 -144 82z" />
    <glyph glyph-name="P" unicode="P" horiz-adv-x="540" 
d="M90 686h192c63 0 106 -3 150 -32c78 -50 88 -123 88 -164c0 -51 -10 -116 -62 -163c-57 -52 -124 -54 -166 -54h-120v-273h-82v686zM172 340h115c66 0 90 18 107 37c21 23 35 50 35 100c0 51 -15 84 -40 106c-33 29 -79 34 -130 34h-87v-277z" />
    <glyph glyph-name="Q" unicode="Q" horiz-adv-x="671" 
d="M692 -50l-27 -65c-12 -6 -30 -9 -59 -9c-43 0 -98 32 -131 52c-49 30 -71 45 -145 59c-85 0 -146 40 -187 87c-54 62 -83 155 -83 272c0 218 104 352 273 352c108 0 178 -53 216 -112c42 -66 63 -144 63 -254c0 -132 -31 -214 -101 -279c-15 -14 -27 -23 -44 -33
c28 -9 65 -32 92 -47c19 -11 51 -28 92 -28c18 0 36 3 41 5zM520 320c0 101 -11 170 -34 218c-22 46 -66 94 -153 94c-63 0 -118 -32 -145 -80c-24 -45 -36 -104 -36 -189c0 -103 18 -193 44 -239c26 -45 87 -74 146 -74c56 0 96 19 127 59c34 44 51 101 51 211z" />
    <glyph glyph-name="R" unicode="R" horiz-adv-x="545" 
d="M172 0h-82v686h160c80 0 133 -13 173 -44c24 -19 68 -64 68 -144c0 -53 -17 -107 -57 -143c-25 -23 -65 -45 -125 -45h-10c27 -23 42 -41 67 -74c28 -37 93 -136 125 -184l34 -52h-102c-12 25 -33 65 -86 144c-38 56 -61 86 -89 122c-9 11 -21 27 -39 36
c-11 5 -26 8 -37 8v-310zM173 361h73c29 0 86 0 124 35c29 27 35 71 35 103c0 55 -32 89 -67 104c-29 13 -70 14 -86 14h-79v-256z" />
    <glyph glyph-name="S" unicode="S" horiz-adv-x="567" 
d="M498 632l-36 -58c-26 18 -53 32 -77 41c-25 9 -52 16 -87 16c-39 0 -75 -8 -103 -31c-25 -21 -35 -47 -35 -81c0 -24 5 -45 24 -65c18 -20 48 -34 89 -47l79 -25c54 -17 91 -34 120 -68c23 -27 45 -69 45 -121c0 -56 -26 -120 -95 -164c-51 -33 -101 -41 -153 -41
c-58 0 -134 9 -219 62l36 64c63 -47 127 -59 187 -59c32 0 70 3 105 29c32 24 48 59 48 97c0 35 -14 61 -30 78c-26 28 -66 42 -92 50l-69 21c-49 15 -88 26 -121 60c-29 30 -43 67 -43 112c0 51 19 107 69 148c35 28 84 48 152 48c96 0 168 -39 206 -66z" />
    <glyph glyph-name="T" unicode="T" 
d="M477 686l-5 -69h-186v-617h-82v617h-184v69h457z" />
    <glyph glyph-name="U" unicode="U" horiz-adv-x="626" 
d="M541 686v-488c0 -64 -2 -114 -52 -157c-57 -49 -134 -53 -181 -53c-64 0 -158 9 -203 99c-16 31 -20 66 -20 107v492h82v-462c0 -62 7 -88 12 -99c8 -18 36 -67 133 -67c62 0 99 16 121 43c23 28 26 60 26 107v478h82z" />
    <glyph glyph-name="V" unicode="V" horiz-adv-x="567" 
d="M557 686l-235 -686h-81l-231 686h89l145 -442c10 -30 37 -126 40 -153c4 24 34 117 42 143l147 452h84z" />
    <glyph glyph-name="W" unicode="W" horiz-adv-x="812" 
d="M362 686h93l95 -426c13 -56 26 -131 35 -184c16 102 30 164 40 212l85 398h82l-157 -686h-107l-85 381c-14 64 -26 125 -36 195c-11 -74 -24 -140 -35 -189l-84 -387h-106l-162 686h88l87 -401c14 -64 27 -136 37 -209c11 61 29 155 39 199z" />
    <glyph glyph-name="X" unicode="X" horiz-adv-x="536" 
d="M531 0h-99l-170 315l-161 -315h-96l203 368l-182 318h97l137 -254l131 254h96l-172 -312z" />
    <glyph glyph-name="Y" unicode="Y" horiz-adv-x="509" 
d="M425 686h94l-225 -419v-267h-82v272l-222 414h101l130 -262c2 -5 10 -21 35 -77c16 34 28 59 37 77z" />
    <glyph glyph-name="Z" unicode="Z" horiz-adv-x="508" 
d="M73 686h391v-70l-285 -481c-12 -20 -31 -49 -42 -66c28 1 43 1 59 1h272l-21 -70h-407v63l293 489c18 29 35 54 44 66c-16 0 -31 0 -47 -1c-8 0 -16 -1 -24 -1h-256z" />
    <glyph glyph-name="bracketleft" unicode="[" horiz-adv-x="275" 
d="M255 -156h-165v888h165v-60h-93v-768h93v-60z" />
    <glyph glyph-name="backslash" unicode="\" horiz-adv-x="404" 
d="M384 -18l-63 -25l-301 769l63 24z" />
    <glyph glyph-name="bracketright" unicode="]" horiz-adv-x="275" 
d="M185 -156h-165v60h93v768h-93v60h165v-888z" />
    <glyph glyph-name="asciicircum" unicode="^" horiz-adv-x="626" 
d="M566 275h-74l-179 349l-179 -349h-74l223 433h60z" />
    <glyph glyph-name="underscore" unicode="_" horiz-adv-x="500" 
d="M500 -125h-500v50h500v-50z" />
    <glyph glyph-name="grave" unicode="`" horiz-adv-x="350" 
d="M300 612l-26 -47l-224 100l43 77z" />
    <glyph glyph-name="a" unicode="a" horiz-adv-x="519" 
d="M467 37l-40 -56c-34 11 -59 38 -68 73c-55 -58 -107 -66 -144 -66c-101 0 -160 54 -160 141c0 55 22 100 71 133c58 38 138 46 194 46c13 0 24 0 34 -1v35v20c0 22 -2 41 -18 60c-19 22 -45 25 -65 25c-35 0 -68 -11 -89 -19c-25 -10 -47 -22 -70 -40l-39 56
c28 18 64 37 98 49c32 11 69 18 108 18c94 0 129 -45 141 -78c9 -26 11 -59 11 -87v-23l-4 -164c0 -13 -1 -26 -1 -37c0 -39 5 -68 41 -85zM349 123l3 130l-13 1c-8 1 -17 1 -27 1c-46 0 -108 -7 -139 -37c-28 -26 -31 -61 -31 -82c0 -36 11 -56 22 -67
c14 -14 36 -23 63 -23c45 0 95 25 122 77z" />
    <glyph glyph-name="b" unicode="b" horiz-adv-x="562" 
d="M77 716l78 15c12 -51 13 -86 13 -118v-116c0 -11 -1 -18 -2 -55c58 62 114 67 141 67c62 0 108 -24 140 -64c47 -58 55 -137 55 -189c0 -88 -20 -146 -55 -193c-44 -59 -98 -75 -143 -75c-27 0 -57 8 -80 20c-9 5 -34 18 -57 46c-1 -17 -5 -35 -14 -54h-78
c13 33 15 66 15 124v490c0 35 -4 68 -13 102zM167 373l1 -254c17 -24 36 -36 58 -46c17 -7 39 -15 64 -15c31 0 68 13 90 43c12 16 35 56 35 160c0 42 -3 99 -29 134c-14 19 -42 44 -93 44c-27 0 -78 -7 -126 -66z" />
    <glyph glyph-name="c" unicode="c" horiz-adv-x="459" 
d="M376 105l43 -50c-17 -18 -42 -39 -69 -51c-22 -10 -50 -16 -86 -16c-80 0 -125 33 -156 76c-29 41 -48 96 -48 177c0 108 35 176 79 217c45 43 93 53 132 53c33 0 85 -7 135 -54l-43 -54c-39 38 -76 40 -91 40c-19 0 -59 -3 -88 -42c-26 -34 -37 -90 -37 -168
c0 -44 4 -97 30 -136c26 -38 64 -46 92 -46c27 0 52 9 72 22c13 8 25 20 35 32z" />
    <glyph glyph-name="d" unicode="d" horiz-adv-x="561" 
d="M486 0h-80c-7 17 -10 34 -11 51c-37 -45 -72 -63 -132 -63c-44 0 -203 13 -203 252c0 62 10 173 103 236c22 15 55 31 100 31c50 0 98 -21 131 -63l-1 286l78 -13v-556c0 -95 4 -126 15 -161zM392 127v264c-34 46 -85 52 -114 52c-55 0 -82 -25 -100 -52
c-32 -49 -31 -97 -31 -144c0 -45 -1 -90 19 -130c24 -48 69 -59 100 -59c18 0 58 4 96 33c13 10 22 20 30 36z" />
    <glyph glyph-name="e" unicode="e" horiz-adv-x="511" 
d="M461 235h-311v-11c0 -27 0 -72 23 -109c23 -38 69 -61 124 -61c28 0 78 6 122 47l30 -50c-48 -41 -106 -63 -168 -63c-86 0 -134 38 -162 71c-49 59 -59 126 -59 195c0 52 8 118 51 176c30 41 80 80 158 80c61 0 109 -25 135 -52c28 -28 40 -67 43 -76
c8 -28 14 -66 14 -135v-12zM150 295h228c1 30 -5 83 -23 111c-15 23 -47 44 -90 44c-42 0 -70 -18 -89 -48c-18 -28 -27 -73 -26 -107z" />
    <glyph glyph-name="f" unicode="f" horiz-adv-x="289" 
d="M339 695l-29 -55c-19 11 -47 23 -74 23c-44 0 -68 -31 -68 -88v-77h138l-24 -59h-114v-439h-78v439h-48v59h48v78c0 74 34 106 55 122c24 18 51 26 88 26c41 0 78 -10 106 -29z" />
    <glyph glyph-name="g" unicode="g" horiz-adv-x="504" 
d="M461 502l48 -48c-38 -29 -71 -30 -84 -30c-19 0 -28 3 -34 6c22 -29 28 -62 28 -84c0 -27 -6 -87 -58 -127c-35 -27 -73 -34 -107 -33c-26 -9 -42 -17 -60 -27c-15 -8 -30 -17 -30 -31c0 -7 3 -12 8 -16c9 -7 21 -8 32 -8h80c58 0 89 -7 120 -28c41 -28 55 -64 55 -105
c0 -32 -7 -81 -49 -115c-45 -37 -106 -42 -154 -42c-44 0 -112 4 -160 35c-31 20 -51 51 -51 95c0 8 1 24 10 50l82 7c-7 -12 -14 -29 -14 -45c0 -14 4 -41 29 -58c22 -14 57 -24 101 -24c58 0 88 16 102 32c16 18 19 40 19 56c0 35 -13 50 -27 60c-21 14 -47 17 -98 17h-77
c-20 0 -46 2 -68 19c-15 11 -26 27 -26 53c0 21 8 36 16 45c15 17 48 33 74 40c-65 20 -111 74 -111 144c0 39 10 85 51 122c37 34 82 46 132 46c25 0 50 -3 85 -15c15 -5 34 -13 67 -13c13 0 39 1 69 22zM332 344c0 31 -4 59 -27 80c-14 13 -34 20 -67 20
c-28 0 -52 -7 -70 -26c-20 -22 -24 -52 -24 -77c0 -39 13 -62 25 -74c11 -11 33 -25 71 -25c30 0 54 8 72 30c18 23 20 51 20 72z" />
    <glyph glyph-name="h" unicode="h" horiz-adv-x="557" 
d="M467 0h-78v344c0 27 1 53 -19 74c-17 18 -41 20 -58 20c-28 0 -51 -9 -74 -23c-27 -16 -52 -39 -70 -61v-354h-78v614c0 35 -4 68 -13 102l78 15c12 -51 13 -86 13 -118v-116c0 -16 -2 -48 -3 -68c40 40 101 79 166 79c40 0 82 -15 106 -42c30 -33 30 -75 30 -109v-357z
" />
    <glyph glyph-name="i" unicode="i" horiz-adv-x="261" 
d="M193 652c0 -33 -28 -61 -61 -61s-61 27 -61 60s28 62 61 62s61 -28 61 -61zM171 0h-78v496l78 13v-509z" />
    <glyph glyph-name="j" unicode="j" horiz-adv-x="260" 
d="M191 652c0 -33 -28 -61 -61 -61s-61 28 -61 61s28 61 61 61s61 -28 61 -61zM170 510v-500c0 -45 -1 -75 -14 -110c-23 -54 -67 -83 -102 -98l-39 52c76 27 77 97 77 163v477z" />
    <glyph glyph-name="k" unicode="k" horiz-adv-x="504" 
d="M504 0h-104l-229 282l190 216h98l-196 -216zM168 0h-78v614c0 35 -4 68 -13 102l78 15c12 -51 13 -86 13 -118v-613z" />
    <glyph glyph-name="l" unicode="l" horiz-adv-x="258" 
d="M78 712l77 15c12 -51 13 -86 13 -118v-509c0 -28 4 -39 9 -44c3 -3 8 -6 16 -6c5 0 10 1 13 2l16 -51c-18 -10 -32 -11 -46 -11c-30 0 -47 8 -62 21c-14 13 -24 30 -24 71v528c0 41 -3 68 -12 102z" />
    <glyph glyph-name="m" unicode="m" horiz-adv-x="802" 
d="M712 0h-78v368c0 17 -2 73 -63 73c-23 0 -43 -7 -63 -20c-19 -12 -50 -39 -68 -57v-364h-78v354c0 38 -6 54 -14 64c-15 19 -37 20 -51 20c-28 0 -49 -8 -72 -22c-28 -17 -51 -38 -57 -44v-372h-78v386c0 41 -3 70 -18 106l79 18c12 -25 18 -50 18 -74
c42 47 100 75 145 75c26 0 55 -9 75 -24c16 -12 33 -31 42 -59c32 36 92 83 156 83c74 0 125 -57 125 -135v-376z" />
    <glyph glyph-name="n" unicode="n" horiz-adv-x="547" 
d="M71 489l78 21c12 -26 18 -52 18 -78c23 24 48 42 73 55c23 12 51 22 84 22c61 0 104 -36 121 -73c12 -27 12 -45 12 -58v-378h-78v337c0 30 1 62 -18 83c-14 15 -36 21 -55 21c-11 0 -35 -2 -73 -22c-25 -13 -46 -28 -65 -48v-371h-78v384c0 40 -5 71 -19 105z" />
    <glyph glyph-name="o" unicode="o" horiz-adv-x="540" 
d="M270 512c58 0 119 -24 158 -71c40 -48 57 -121 57 -192s-17 -144 -57 -192c-39 -47 -100 -71 -158 -71s-119 24 -158 71c-40 48 -57 121 -57 192s17 144 57 192c39 47 100 71 158 71zM270 448c-55 0 -87 -30 -105 -64c-11 -21 -23 -59 -23 -135s12 -114 23 -135
c18 -34 50 -64 105 -64s87 30 105 64c11 21 23 59 23 135s-12 114 -23 135c-18 34 -50 64 -105 64z" />
    <glyph glyph-name="p" unicode="p" horiz-adv-x="559" 
d="M79 497l80 14c3 -25 5 -50 5 -76c58 71 131 73 147 73c26 0 88 -7 133 -62c50 -61 55 -148 55 -196c0 -60 -8 -120 -40 -172c-33 -53 -86 -91 -154 -91c-42 0 -95 16 -137 58v-238l-78 -15v598c0 45 -3 75 -11 107zM168 368v-251c26 -30 70 -65 122 -65
c47 0 86 24 105 62c20 41 21 99 21 117c0 81 -10 124 -23 151c-21 45 -62 56 -92 56c-48 0 -99 -26 -133 -70z" />
    <glyph glyph-name="q" unicode="q" horiz-adv-x="562" 
d="M407 498h80s-15 -45 -15 -128v-556l-78 -17v259c-38 -44 -83 -65 -140 -65c-46 0 -81 12 -114 40c-49 41 -80 102 -80 203c0 99 14 154 47 199c37 51 90 80 149 80c54 0 98 -22 141 -70c1 13 5 44 10 55zM394 135v237c-27 43 -79 71 -127 71c-43 0 -81 -22 -101 -61
c-17 -33 -23 -64 -23 -130c0 -109 22 -142 47 -165c21 -20 45 -29 83 -29c51 0 95 28 121 77z" />
    <glyph glyph-name="r" unicode="r" horiz-adv-x="314" 
d="M73 490l78 21c10 -22 18 -50 16 -81c18 27 40 46 67 62c20 12 43 21 73 21c9 0 17 -1 27 -5l-32 -85c-6 3 -11 4 -22 4c-23 0 -52 -6 -83 -36c-8 -8 -17 -18 -22 -30c-3 -8 -7 -22 -7 -49v-312h-78v384c0 42 -4 71 -17 106z" />
    <glyph glyph-name="s" unicode="s" horiz-adv-x="471" 
d="M222 301l66 -14c28 -6 70 -18 99 -48c20 -21 34 -51 34 -91c0 -54 -22 -90 -48 -114c-38 -35 -85 -49 -140 -49c-26 0 -101 3 -183 50l30 58c47 -30 106 -47 158 -47c29 0 57 7 79 29c14 15 22 34 22 59c0 19 -4 37 -21 53c-16 15 -41 23 -61 27l-62 13
c-14 3 -57 13 -88 43c-28 27 -38 62 -38 94c0 46 21 91 62 120c27 19 64 33 115 33c63 0 117 -21 152 -40l-29 -58c-59 29 -95 36 -125 36c-20 0 -48 -3 -69 -23c-14 -13 -25 -34 -25 -62c0 -17 4 -32 18 -45c15 -14 39 -21 54 -24z" />
    <glyph glyph-name="t" unicode="t" horiz-adv-x="311" 
d="M98 624l83 18c-6 -51 -9 -99 -10 -144h125l-24 -59h-104v-321c0 -17 1 -43 14 -58s34 -16 47 -16c18 0 34 2 52 10l11 -50c-33 -16 -67 -20 -88 -20c-18 0 -43 3 -65 14c-39 19 -49 50 -49 99v342h-65v59h65c1 43 4 85 8 126z" />
    <glyph glyph-name="u" unicode="u" horiz-adv-x="548" 
d="M492 32l-50 -53c-26 19 -49 46 -54 80c-49 -67 -118 -76 -159 -76c-91 0 -122 52 -131 71c-10 21 -13 55 -13 74v366l78 15v-358c0 -35 2 -63 30 -84c20 -15 48 -17 61 -17c54 0 101 41 126 90v353l78 13v-363c0 -50 2 -80 34 -111z" />
    <glyph glyph-name="v" unicode="v" horiz-adv-x="463" 
d="M10 494l80 17l116 -343c12 -36 20 -67 24 -85h2c9 44 18 67 24 84l114 331h83l-187 -503h-77z" />
    <glyph glyph-name="w" unicode="w" horiz-adv-x="685" 
d="M670 498l-141 -502h-77l-99 350c-7 23 -11 44 -14 55h-2c-3 -20 -7 -36 -11 -51l-100 -354h-73l-138 498l78 17c23 -91 82 -331 98 -412h3c3 16 14 60 17 72l89 327h85l87 -331c5 -19 7 -32 20 -73h2c4 17 8 33 11 50c1 6 3 13 4 19l79 335h82z" />
    <glyph glyph-name="x" unicode="x" 
d="M457 0h-95l-135 212l-135 -212h-92l186 276l-154 222h96l99 -166l96 166h91l-148 -222z" />
    <glyph glyph-name="y" unicode="y" horiz-adv-x="449" 
d="M87 513l102 -323c12 -39 23 -85 30 -124h2c15 52 22 74 31 105l98 327h89l-171 -516c-14 -42 -32 -88 -59 -122c-25 -31 -55 -50 -89 -61l-13 -4l-23 53c27 7 51 22 66 39c11 12 29 38 45 99l4 15l-32 -5c-12 54 -39 147 -50 179l-107 312z" />
    <glyph glyph-name="z" unicode="z" horiz-adv-x="449" 
d="M409 60l-37 -60h-332v60l271 376h-250v62h332v-64l-259 -374h275z" />
    <glyph glyph-name="braceleft" unicode="{" horiz-adv-x="321" 
d="M301 -156h-70c-50 0 -105 44 -105 125v175c0 72 -44 114 -86 114v60c42 0 86 44 86 113v176c0 81 58 125 105 125h70v-60h-54c-42 0 -49 -39 -49 -79v-176c0 -90 -63 -122 -86 -128v-2c23 -3 86 -30 86 -129v-175c0 -39 7 -79 49 -79h54v-60z" />
    <glyph glyph-name="bar" unicode="|" horiz-adv-x="246" 
d="M156 -208h-66v964h66v-964z" />
    <glyph glyph-name="braceright" unicode="}" horiz-adv-x="321" 
d="M281 318v-60c-42 0 -86 -42 -86 -114v-175c0 -81 -55 -125 -105 -125h-70v60h54c42 0 49 40 49 79v175c0 99 63 126 86 129v2c-23 6 -86 38 -86 128v176c0 40 -7 79 -49 79h-54v60h70c47 0 105 -44 105 -125v-176c0 -69 44 -113 86 -113z" />
    <glyph glyph-name="asciitilde" unicode="~" horiz-adv-x="580" 
d="M487 372l33 -48c-31 -42 -64 -88 -126 -88c-77 0 -144 68 -217 68c-44 0 -68 -35 -84 -70l-33 48c30 42 63 88 125 88c77 0 145 -68 217 -68c44 0 68 35 85 70z" />
    <glyph glyph-name="afii10051" unicode="&#x402;" horiz-adv-x="650" 
d="M446 686l-4 -69h-195v-220c49 22 89 36 141 36c64 0 106 -24 130 -47c49 -46 58 -109 58 -168c0 -65 -7 -125 -55 -177c-33 -36 -71 -53 -121 -53c-33 0 -63 7 -96 25l19 63l14 -8c22 -13 46 -16 61 -16c35 -1 56 12 71 38c20 34 20 76 20 112c0 47 -1 92 -22 123
c-25 37 -65 43 -95 43c-41 0 -84 -11 -125 -33v-335h-82v617h-175v69h456z" />
    <glyph glyph-name="afii10052" unicode="&#x403;" horiz-adv-x="450" 
d="M90 686h367l-5 -70h-280v-616h-82v686zM403 829l-224 -100l-26 47l207 130z" />
    <glyph glyph-name="afii10100" unicode="&#x453;" horiz-adv-x="376" 
d="M161 428v-428h-78v498h283l-11 -70h-194zM358 665l-224 -100l-26 47l207 130z" />
    <glyph glyph-name="quotedblbase" unicode="&#x201e;" horiz-adv-x="458" 
d="M276 -143l-28 44c39 19 62 50 67 89c-5 -1 -7 -1 -11 -1c-30 0 -55 29 -55 64c0 40 31 72 70 72c46 0 79 -40 79 -96c0 -35 -14 -71 -38 -103c-20 -26 -53 -52 -84 -69zM78 -143l-28 44c39 19 62 50 67 89c-5 -1 -7 -1 -11 -1c-30 0 -55 29 -55 64c0 40 31 72 70 72
c46 0 79 -40 79 -96c0 -35 -14 -71 -38 -103c-20 -26 -53 -52 -84 -69z" />
    <glyph glyph-name="ellipsis" unicode="&#x2026;" horiz-adv-x="734" 
d="M664 56c0 -38 -30 -69 -66 -69c-38 0 -68 31 -68 69c0 37 29 66 66 66c38 0 68 -29 68 -66zM434 56c0 -38 -30 -69 -66 -69c-38 0 -68 31 -68 69c0 37 29 66 66 66c38 0 68 -29 68 -66zM204 56c0 -38 -30 -69 -66 -69c-38 0 -68 31 -68 69c0 37 29 66 66 66
c38 0 68 -29 68 -66z" />
    <glyph glyph-name="dagger" unicode="&#x2020;" horiz-adv-x="466" 
d="M436 524l-10 -69h-150v-455h-79v455h-157v69h157v162h79v-162h160z" />
    <glyph glyph-name="afii10058" unicode="&#x409;" horiz-adv-x="884" 
d="M494 686v-278h101c43 0 119 -2 174 -40c38 -26 80 -78 80 -163c0 -70 -29 -126 -69 -159c-49 -39 -115 -46 -175 -46h-193v622h-171l-9 -165c-12 -213 -24 -358 -80 -417c-30 -32 -66 -39 -100 -43l-34 -4l-15 57l20 6c10 3 30 11 40 16c61 31 84 123 100 450l8 164h323z
M494 65h123c33 0 70 2 102 29c22 19 44 54 44 109c0 72 -36 105 -58 119c-34 21 -69 21 -105 21h-106v-278z" />
    <glyph glyph-name="afii10059" unicode="&#x40a;" horiz-adv-x="919" 
d="M529 686v-283h101c43 0 119 -2 174 -40c39 -27 80 -79 80 -158c0 -69 -29 -127 -69 -159c-49 -39 -115 -46 -175 -46h-193v338h-275v-338h-82v686h82v-283h275v283h82zM529 65h123c33 0 70 2 102 29c7 6 44 40 44 109c0 65 -35 99 -58 114c-34 21 -69 21 -105 21h-106
v-273z" />
    <glyph glyph-name="afii10061" unicode="&#x40c;" horiz-adv-x="594" 
d="M536 694l16 -57l-33 -8c-10 -3 -25 -8 -32 -14c-5 -4 -17 -14 -25 -45l-27 -98c-7 -25 -13 -45 -30 -68c-14 -19 -29 -31 -47 -39v-2c12 -5 27 -13 41 -30c17 -21 27 -47 34 -73l39 -138c5 -18 7 -37 32 -50c9 -5 31 -13 40 -16l20 -6l-15 -57l-56 6c-48 5 -69 21 -82 37
c-18 23 -23 54 -30 87l-22 111c-2 11 -11 52 -33 73c-12 12 -33 24 -68 24h-86v-331h-82v686h82v-288h96c39 0 59 15 66 22c21 20 29 56 32 70l20 99c4 21 14 54 32 72c24 23 55 26 74 28zM422 829l-224 -100l-26 47l207 130z" />
    <glyph glyph-name="afii10060" unicode="&#x40b;" horiz-adv-x="646" 
d="M446 686l-4 -69h-195v-221c47 24 88 37 145 37c44 0 93 -10 127 -37c46 -38 52 -92 52 -126v-270h-82v270c0 95 -85 98 -107 98c-50 0 -93 -15 -135 -33v-335h-82v617h-175v69h456z" />
    <glyph glyph-name="afii10145" unicode="&#x40f;" horiz-adv-x="608" 
d="M518 686v-686h-173v-182h-82v182h-173v686h82v-622h264v622h82z" />
    <glyph glyph-name="afii10099" unicode="&#x452;" horiz-adv-x="558" 
d="M168 611h179l-23 -58h-156v-56c0 -16 -2 -48 -3 -68c38 34 98 74 166 74c128 0 137 -101 137 -151v-267c0 -112 -9 -166 -26 -200c-15 -30 -47 -66 -95 -83l-39 52c94 37 82 134 82 236v249c0 40 -4 94 -77 94c-62 0 -116 -46 -145 -79v-354h-78v553h-60v58h60v119
l78 -13v-106z" />
    <glyph glyph-name="quoteleft" unicode="&#x2018;" horiz-adv-x="260" 
d="M182 711l28 -44c-39 -19 -62 -50 -67 -89c5 1 7 1 11 1c30 0 55 -29 55 -64c0 -40 -31 -72 -70 -72c-46 0 -79 40 -79 96c0 35 14 71 38 103c20 26 53 52 84 69z" />
    <glyph glyph-name="quoteright" unicode="&#x2019;" horiz-adv-x="260" 
d="M78 430l-28 44c39 19 62 50 67 89c-5 -1 -7 -1 -11 -1c-30 0 -55 29 -55 64c0 40 31 72 70 72c46 0 79 -40 79 -96c0 -35 -14 -71 -38 -103c-20 -26 -53 -52 -84 -69z" />
    <glyph glyph-name="quotedblleft" unicode="&#x201c;" 
d="M379 711l28 -44c-39 -19 -62 -50 -67 -89c5 1 7 1 11 1c30 0 55 -29 55 -64c0 -40 -31 -72 -70 -72c-46 0 -79 40 -79 96c0 35 14 71 38 103c20 26 53 52 84 69zM182 711l28 -44c-39 -19 -62 -50 -67 -89c5 1 7 1 11 1c30 0 55 -29 55 -64c0 -40 -31 -72 -70 -72
c-46 0 -79 40 -79 96c0 35 14 71 38 103c20 26 53 52 84 69z" />
    <glyph glyph-name="quotedblright" unicode="&#x201d;" 
d="M275 430l-28 44c39 19 62 50 67 89c-5 -1 -7 -1 -11 -1c-30 0 -55 29 -55 64c0 40 31 72 70 72c46 0 79 -40 79 -96c0 -35 -14 -71 -38 -103c-20 -26 -53 -52 -84 -69zM78 430l-28 44c39 19 62 50 67 89c-5 -1 -7 -1 -11 -1c-30 0 -55 29 -55 64c0 40 31 72 70 72
c46 0 79 -40 79 -96c0 -35 -14 -71 -38 -103c-20 -26 -53 -52 -84 -69z" />
    <glyph glyph-name="bullet" unicode="&#x2022;" horiz-adv-x="514" 
d="M434 354c0 -98 -79 -177 -177 -177s-177 79 -177 177s79 177 177 177s177 -79 177 -177z" />
    <glyph glyph-name="endash" unicode="&#x2013;" horiz-adv-x="585" 
d="M535 250h-485v59h485v-59z" />
    <glyph glyph-name="emdash" unicode="&#x2014;" horiz-adv-x="812" 
d="M762 250h-712v59h712v-59z" />
    <glyph glyph-name="trademark" unicode="&#x2122;" horiz-adv-x="982" 
d="M892 274h-66v346h-2l-136 -346h-45l-136 346h-2v-346h-66v412h105l123 -313l123 313h102v-412zM356 620h-130v-346h-66v346h-130v66h326v-66z" />
    <glyph glyph-name="afii10106" unicode="&#x459;" horiz-adv-x="723" 
d="M410 306h69c48 0 114 -1 163 -44c35 -30 46 -67 46 -111c0 -42 -11 -82 -51 -114c-37 -30 -80 -37 -122 -37h-183v438h-123l-7 -77c-4 -45 -7 -82 -15 -147c-4 -31 -8 -60 -15 -96c-9 -45 -14 -74 -41 -97c-25 -22 -60 -26 -72 -27l-33 -3l-13 49l19 6c12 4 20 8 29 13
c30 18 40 38 53 142c17 136 16 142 19 179l11 118h266v-192zM410 246v-186h94c36 0 60 13 73 24c21 18 30 42 30 68c0 33 -10 56 -28 71c-25 22 -56 23 -85 23h-84z" />
    <glyph glyph-name="afii10107" unicode="&#x45a;" horiz-adv-x="759" 
d="M446 301h69c73 0 122 -8 163 -43c35 -29 46 -62 46 -107c0 -42 -11 -82 -51 -114c-37 -30 -80 -37 -122 -37h-183v241h-210v-241h-78v494l78 15v-208h210v193l78 15v-208zM446 241v-181h94c36 0 60 13 73 24c21 18 30 42 30 68c0 27 -7 50 -28 67c-25 20 -56 22 -85 22
h-84z" />
    <glyph glyph-name="afii10109" unicode="&#x45c;" horiz-adv-x="491" 
d="M80 0v494l78 15v-220h84c20 0 32 2 45 15c4 4 16 16 22 47l15 76c4 19 11 39 23 52c9 10 25 21 60 24l44 4l14 -50l-30 -7c-7 -2 -15 -4 -22 -11c-9 -9 -14 -23 -15 -28l-21 -75c-4 -14 -8 -34 -23 -50c-9 -10 -24 -19 -37 -24v-3c13 -5 24 -12 32 -21
c16 -17 22 -35 27 -54l26 -94c3 -11 9 -26 21 -33c4 -3 11 -5 29 -11l19 -6l-13 -49l-54 4c-18 1 -46 7 -64 30c-12 16 -18 36 -23 64l-13 75c-3 20 -7 35 -23 50c-18 16 -34 15 -46 15h-77v-229h-78zM370 665l-224 -100l-26 47l207 130z" />
    <glyph glyph-name="afii10108" unicode="&#x45b;" horiz-adv-x="558" 
d="M468 0h-78v339c0 27 1 53 -19 74c-17 18 -41 20 -58 20c-28 0 -53 -10 -75 -22c-27 -15 -52 -36 -70 -57v-354h-78v553h-60v58h60v119l78 -13v-106h188l-23 -58h-165v-56c0 -16 -2 -48 -3 -68c38 34 98 74 166 74c41 0 81 -15 106 -42c31 -34 31 -74 31 -109v-352z" />
    <glyph glyph-name="afii10193" unicode="&#x45f;" horiz-adv-x="516" 
d="M158 60h200v438h78v-498h-140v-147h-76v147h-140v498h78v-438z" />
    <glyph glyph-name="afii10062" unicode="&#x40e;" horiz-adv-x="469" 
d="M67 686l137 -345c13 -32 23 -57 36 -101c8 26 27 84 34 105l113 341h80l-174 -507c-9 -25 -18 -56 -35 -95c-11 -25 -24 -51 -49 -69c-30 -22 -71 -27 -93 -30l-29 -4l-15 58l20 5c10 3 32 11 43 16c18 9 33 22 43 36c11 15 24 46 30 66l10 32l-38 -3l-202 495h89z
M333 861l41 -30c-11 -23 -28 -46 -46 -60c-23 -18 -57 -31 -94 -31s-71 13 -94 31c-18 14 -35 37 -46 60l41 30c12 -16 25 -30 44 -41c18 -10 36 -14 55 -14s37 4 55 14c19 11 32 25 44 41z" />
    <glyph glyph-name="afii10110" unicode="&#x45e;" horiz-adv-x="449" 
d="M87 513l102 -323c12 -39 23 -85 30 -124h2c15 52 22 74 31 105l98 327h89l-171 -516c-14 -42 -32 -88 -59 -122c-25 -31 -55 -50 -89 -61l-13 -4l-23 53c27 7 51 22 66 39c11 12 29 38 45 99l4 15l-32 -5c-12 54 -39 147 -50 179l-107 312zM334 724l45 -33
c-24 -53 -73 -99 -154 -99c-58 0 -118 23 -154 99l45 33c14 -23 29 -38 48 -49c21 -12 40 -14 61 -14c20 0 40 2 61 14c18 11 38 32 48 49z" />
    <glyph glyph-name="afii10057" unicode="&#x408;" horiz-adv-x="269" 
d="M179 686v-569c0 -74 -2 -117 -25 -157c-20 -35 -56 -67 -116 -88l-40 51c35 14 66 39 82 67c14 24 17 54 17 125v571h82z" />
    <glyph glyph-name="currency" unicode="&#xa4;" horiz-adv-x="502" 
d="M12 108l70 71c-31 39 -48 82 -48 135s17 96 48 135l-70 71l32 32l71 -70c39 31 82 48 135 48s96 -17 135 -48l71 70l32 -32l-70 -71c31 -39 48 -82 48 -135s-17 -96 -48 -135l71 -71l-33 -32l-71 70c-50 -39 -102 -48 -136 -48c-20 0 -77 4 -134 48l-71 -70zM130 194
c30 -30 74 -50 120 -50c93 0 170 77 170 170s-77 170 -170 170s-170 -77 -170 -170c0 -46 20 -90 50 -120z" />
    <glyph glyph-name="afii10050" unicode="&#x490;" horiz-adv-x="467" 
d="M90 686h291v116h76v-184h-285v-618h-82v686z" />
    <glyph glyph-name="section" unicode="&#xa7;" horiz-adv-x="538" 
d="M228 496l98 -49c68 -34 152 -75 152 -165c0 -61 -36 -105 -86 -133c43 -28 69 -67 69 -123c0 -115 -102 -170 -204 -170c-86 0 -164 38 -197 123l77 36c18 -61 66 -87 126 -87c56 0 108 27 108 92c0 48 -33 65 -100 100l-122 64c-46 24 -73 69 -73 122
c0 70 43 112 101 140c-46 26 -77 64 -77 118c0 107 96 162 192 162c69 0 144 -27 175 -94l-75 -41c-16 44 -60 63 -103 63c-51 0 -105 -26 -105 -86c0 -33 15 -57 44 -72zM240 226l89 -43c33 14 65 49 65 87c0 56 -55 85 -97 106l-58 29c-39 -16 -85 -35 -85 -86
c0 -52 46 -74 86 -93z" />
    <glyph glyph-name="afii10023" unicode="&#x401;" horiz-adv-x="510" 
d="M126 805c0 32 23 55 55 55s55 -23 55 -55s-23 -55 -55 -55s-55 23 -55 55zM328 805c0 32 23 55 55 55s55 -23 55 -55s-23 -55 -55 -55s-55 23 -55 55zM475 0h-385v686h375l-11 -70h-282v-223h236v-70h-236v-253h303v-70z" />
    <glyph glyph-name="copyright" unicode="&#xa9;" horiz-adv-x="864" 
d="M804 354c0 -212 -170 -372 -372 -372c-203 0 -372 160 -372 372s169 372 372 372c202 0 372 -160 372 -372zM738 354c0 180 -136 318 -306 318c-171 0 -306 -138 -306 -318s135 -318 306 -318c170 0 306 138 306 318zM530 210l28 -37c-32 -23 -69 -35 -111 -35
c-54 0 -98 23 -129 62c-29 38 -45 88 -45 148c0 48 10 89 27 123c31 59 85 95 149 95c39 0 76 -12 101 -33l-28 -38c-23 17 -45 24 -73 24c-41 0 -73 -21 -92 -59c-13 -26 -20 -61 -20 -111c0 -46 5 -73 15 -97c20 -46 58 -67 102 -67c32 0 54 8 76 25z" />
    <glyph glyph-name="afii10053" unicode="&#x404;" horiz-adv-x="577" 
d="M410 389v-64h-257v-16c0 -47 2 -142 53 -199c25 -28 72 -58 146 -58c32 0 90 7 157 59l36 -62c-17 -12 -37 -24 -63 -35c-44 -18 -87 -26 -126 -26c-77 0 -148 27 -196 72c-52 49 -100 142 -100 288c0 62 8 183 87 268c33 36 96 82 199 82c39 0 116 -7 187 -62l-33 -54
c-53 38 -99 52 -155 52c-30 0 -92 -5 -137 -54c-35 -39 -55 -112 -55 -173v-18h257z" />
    <glyph glyph-name="guillemotleft" unicode="&#xab;" horiz-adv-x="494" 
d="M444 62l-55 -36l-143 214l143 214l55 -36l-117 -178zM258 62l-55 -36l-143 214l143 214l55 -36l-117 -178z" />
    <glyph glyph-name="logicalnot" unicode="&#xac;" horiz-adv-x="489" 
d="M439 77h-71v140h-318v71h389v-211z" />
    <glyph glyph-name="registered" unicode="&#xae;" horiz-adv-x="864" 
d="M804 354c0 -212 -170 -372 -372 -372c-203 0 -372 160 -372 372s169 372 372 372c202 0 372 -160 372 -372zM738 354c0 180 -136 318 -306 318c-171 0 -306 -138 -306 -318s135 -318 306 -318c170 0 306 138 306 318zM588 150h-70c-12 23 -18 33 -34 61
c-32 53 -42 70 -72 103c-11 12 -20 18 -37 19v-183h-58v413h116c49 0 78 -11 98 -30c19 -17 37 -45 37 -85c0 -64 -42 -116 -111 -114c19 -15 29 -28 36 -38c9 -11 21 -29 35 -51c18 -28 52 -82 60 -95zM375 372h40c37 0 57 6 72 19c12 12 20 32 20 56c0 29 -16 52 -38 61
c-12 5 -29 8 -51 8h-43v-144z" />
    <glyph glyph-name="afii10056" unicode="&#x407;" horiz-adv-x="271" 
d="M176 0h-82v686h82v-686zM286 785c0 -29 -23 -53 -51 -53c-29 0 -53 24 -53 53c0 28 23 51 52 51c28 0 52 -23 52 -51zM88 785c0 -29 -22 -53 -51 -53s-52 24 -52 53c0 28 23 51 51 51c29 0 52 -23 52 -51z" />
    <glyph glyph-name="degree" unicode="&#xb0;" horiz-adv-x="402" 
d="M362 515c0 -92 -49 -166 -161 -166c-100 0 -161 66 -161 172s60 170 160 170c101 0 162 -63 162 -176zM295 511c0 77 -22 125 -96 125c-63 0 -91 -35 -91 -107c0 -89 31 -125 96 -125c56 0 91 31 91 107z" />
    <glyph glyph-name="plusminus" unicode="&#xb1;" horiz-adv-x="471" 
d="M421 294h-150v-140h-71v140h-150v71h150v133h71v-133h150v-71zM419 36h-367v71h367v-71z" />
    <glyph glyph-name="afii10055" unicode="&#x406;" horiz-adv-x="262" 
d="M172 0h-82v686h82v-686z" />
    <glyph glyph-name="afii10103" unicode="&#x456;" horiz-adv-x="261" 
d="M193 652c0 -33 -28 -61 -61 -61s-61 27 -61 60s28 62 61 62s61 -28 61 -61zM171 0h-78v496l78 13v-509z" />
    <glyph glyph-name="afii10098" unicode="&#x491;" horiz-adv-x="390" 
d="M161 428v-428h-78v498h224v99h73v-169h-219z" />
    <glyph glyph-name="mu" unicode="&#xb5;" horiz-adv-x="553" 
d="M497 32l-50 -53c-33 27 -47 47 -54 80c-38 -51 -90 -76 -158 -76c-25 0 -52 6 -67 19c0 -22 0 -196 0 -195l-78 -15v702l78 16v-359c0 -49 6 -66 29 -82c16 -11 40 -19 62 -19c49 0 100 36 127 90v353l77 13v-353c0 -66 3 -94 34 -121z" />
    <glyph glyph-name="paragraph" unicode="&#xb6;" horiz-adv-x="591" 
d="M501 -126h-72v768h-118v-768h-72v442c-122 0 -209 82 -209 186c0 130 88 206 228 206h243v-834z" />
    <glyph glyph-name="afii10071" unicode="&#x451;" horiz-adv-x="511" 
d="M461 235h-311v-11c0 -27 0 -72 23 -109c23 -38 69 -61 124 -61c28 0 78 6 122 47l30 -50c-48 -41 -106 -63 -168 -63c-86 0 -134 38 -162 71c-49 59 -59 126 -59 195c0 52 8 118 51 176c30 41 80 80 158 80c61 0 109 -25 135 -52c28 -28 40 -67 43 -76
c8 -28 14 -66 14 -135v-12zM150 295h228c1 30 -5 83 -23 111c-15 23 -47 44 -90 44c-42 0 -70 -18 -89 -48c-18 -28 -27 -73 -26 -107zM420 621c0 -29 -24 -53 -51 -53c-28 0 -53 25 -53 53c0 27 23 51 52 51c28 0 52 -24 52 -51zM213 621c0 -21 -16 -53 -51 -53
c-28 0 -52 24 -52 53c0 27 24 51 51 51c28 0 52 -24 52 -51z" />
    <glyph glyph-name="afii61352" unicode="&#x2116;" horiz-adv-x="911" 
d="M90 686h86l252 -492c12 -23 31 -71 39 -90c-4 54 -9 165 -9 209v373h78v-686h-86l-244 477c-14 27 -33 70 -45 97c5 -61 7 -117 7 -176v-398h-78v686zM880 523c0 -114 -65 -152 -129 -152c-79 0 -129 60 -129 159c0 113 64 156 127 156c60 0 131 -35 131 -163zM822 520
c0 55 -6 122 -73 122c-63 0 -72 -56 -72 -106c0 -33 0 -121 76 -121c69 0 69 75 69 105zM877 203h-251v52h251v-52z" />
    <glyph glyph-name="afii10101" unicode="&#x454;" horiz-adv-x="468" 
d="M384 101l41 -47c-52 -54 -110 -66 -159 -66s-104 12 -150 64c-18 20 -61 78 -61 209c0 91 31 155 68 193c45 46 95 56 139 56c35 0 99 -7 150 -54l-42 -46c-26 24 -60 42 -104 42c-46 0 -75 -18 -91 -36c-23 -26 -33 -69 -33 -104v-18h169v-60h-169v-35
c0 -40 9 -93 37 -122c27 -28 63 -31 83 -31c49 0 91 19 122 55z" />
    <glyph glyph-name="guillemotright" unicode="&#xbb;" horiz-adv-x="494" 
d="M434 240l-143 -214l-55 36l117 178l-117 178l55 36zM248 240l-143 -214l-55 36l117 178l-117 178l55 36z" />
    <glyph glyph-name="afii10105" unicode="&#x458;" horiz-adv-x="260" 
d="M191 652c0 -33 -28 -61 -61 -61s-61 28 -61 61s28 61 61 61s61 -28 61 -61zM170 510v-500c0 -31 0 -74 -14 -110c-15 -39 -51 -76 -102 -98l-39 52c76 27 77 97 77 163v477z" />
    <glyph glyph-name="afii10054" unicode="&#x405;" horiz-adv-x="567" 
d="M498 632l-36 -58c-26 18 -53 32 -77 41c-25 9 -52 16 -87 16c-39 0 -75 -8 -103 -31c-25 -21 -35 -47 -35 -81c0 -24 5 -45 24 -65c18 -20 48 -34 89 -47l79 -25c54 -17 91 -34 120 -68c23 -27 45 -69 45 -121c0 -56 -26 -120 -95 -164c-51 -33 -101 -41 -153 -41
c-58 0 -134 9 -219 62l36 64c63 -47 127 -59 187 -59c32 0 70 3 105 29c32 24 48 59 48 97c0 35 -14 61 -30 78c-26 28 -66 42 -92 50l-69 21c-49 15 -88 26 -121 60c-29 30 -43 67 -43 112c0 51 19 107 69 148c35 28 84 48 152 48c96 0 168 -39 206 -66z" />
    <glyph glyph-name="afii10102" unicode="&#x455;" horiz-adv-x="471" 
d="M222 301l66 -14c28 -6 70 -18 99 -48c20 -21 34 -51 34 -91c0 -54 -22 -90 -48 -114c-38 -35 -85 -49 -140 -49c-26 0 -101 3 -183 50l30 58c47 -30 106 -47 158 -47c29 0 57 7 79 29c14 15 22 34 22 59c0 19 -4 37 -21 53c-16 15 -41 23 -61 27l-62 13
c-14 3 -57 13 -88 43c-28 27 -38 62 -38 94c0 46 21 91 62 120c27 19 64 33 115 33c63 0 117 -21 152 -40l-29 -58c-59 29 -95 36 -125 36c-20 0 -48 -3 -69 -23c-14 -13 -25 -34 -25 -62c0 -17 4 -32 18 -45c15 -14 39 -21 54 -24z" />
    <glyph glyph-name="afii10104" unicode="&#x457;" horiz-adv-x="261" 
d="M171 0h-81v496l81 13v-509zM286 621c0 -29 -24 -53 -51 -53c-28 0 -53 25 -53 53c0 27 23 51 52 51c28 0 52 -24 52 -51zM79 621c0 -28 -22 -53 -51 -53c-28 0 -53 24 -53 53c0 27 25 51 52 51c28 0 52 -24 52 -51z" />
    <glyph glyph-name="afii10017" unicode="&#x410;" horiz-adv-x="573" 
d="M568 0h-93l-65 211h-256l-66 -211h-83l229 686h107zM389 278l-105 336l-108 -336h213z" />
    <glyph glyph-name="afii10018" unicode="&#x411;" horiz-adv-x="589" 
d="M267 0h-177v686h387l-11 -70h-294v-214h113c47 0 123 -2 178 -41c45 -32 76 -90 76 -166c0 -64 -25 -111 -54 -139c-56 -55 -128 -56 -218 -56zM172 67h143c32 0 72 2 102 31c22 21 36 56 36 98c0 49 -17 90 -45 112c-34 27 -77 27 -118 27h-118v-268z" />
    <glyph glyph-name="afii10019" unicode="&#x412;" horiz-adv-x="599" 
d="M90 686h161c62 0 131 0 187 -38c42 -29 72 -78 72 -134c0 -31 -9 -73 -47 -108c-30 -28 -66 -39 -76 -42c32 -5 66 -18 90 -36c41 -31 62 -83 62 -140c0 -61 -25 -107 -54 -134c-55 -52 -129 -54 -218 -54h-177v686zM169 390h119c22 0 64 -1 96 27c20 18 35 49 35 86
c0 38 -16 70 -40 90c-36 29 -78 26 -113 26h-97v-229zM169 67h146c31 0 73 3 102 29c18 16 36 46 36 93c0 58 -23 92 -45 109c-33 25 -79 25 -118 25h-121v-256z" />
    <glyph glyph-name="afii10020" unicode="&#x413;" horiz-adv-x="450" 
d="M90 686h367l-5 -70h-280v-616h-82v686z" />
    <glyph glyph-name="afii10021" unicode="&#x414;" horiz-adv-x="603" 
d="M501 686v-622h70v-246h-80v182h-406v-182h-80v246h43c50 104 74 191 82 222c27 105 36 205 40 296l5 104h326zM244 622l-6 -93c-2 -34 -12 -168 -42 -276c-19 -67 -52 -146 -71 -189h294v558h-175z" />
    <glyph glyph-name="afii10022" unicode="&#x415;" horiz-adv-x="510" 
d="M475 0h-385v686h375l-11 -70h-282v-223h236v-70h-236v-253h303v-70z" />
    <glyph glyph-name="afii10024" unicode="&#x416;" horiz-adv-x="880" 
d="M825 694l16 -57l-33 -8c-10 -3 -25 -8 -32 -14c-5 -4 -17 -14 -25 -45l-27 -98c-7 -25 -13 -45 -30 -68c-14 -19 -29 -31 -47 -39v-2c12 -5 27 -13 41 -30c17 -21 27 -47 34 -73l39 -138c5 -18 7 -37 32 -50c9 -5 31 -13 40 -16l20 -6l-15 -57l-56 6c-48 5 -69 21 -82 37
c-18 23 -23 54 -30 87l-22 111c-2 11 -11 52 -33 73c-12 12 -33 24 -68 24h-66v-331h-82v331h-66c-35 0 -56 -12 -68 -24c-22 -21 -31 -62 -33 -73l-22 -111c-7 -33 -12 -64 -30 -87c-13 -16 -34 -32 -82 -37l-56 -6l-15 57l20 6c9 3 31 11 40 16c25 13 27 32 32 50l39 138
c7 26 17 52 34 73c14 17 29 25 41 30v2c-18 8 -33 20 -47 39c-17 23 -23 43 -30 68l-27 98c-8 31 -20 41 -25 45c-7 6 -22 11 -32 14l-33 8l16 57l44 -5c19 -2 50 -5 74 -28c18 -18 28 -51 32 -72l20 -99c3 -14 11 -50 32 -70c7 -7 27 -22 66 -22h76v288h82v-288h76
c39 0 59 15 66 22c21 20 29 56 32 70l20 99c4 21 14 54 32 72c24 23 55 26 74 28z" />
    <glyph glyph-name="afii10025" unicode="&#x417;" horiz-adv-x="537" 
d="M237 323h-88v64h75c33 0 74 3 105 32c29 27 33 60 33 91c0 29 -4 64 -31 91c-28 28 -67 33 -96 33c-53 0 -108 -16 -155 -57l-36 55c22 17 50 34 79 45c32 12 70 21 113 21c49 0 97 -8 139 -37c53 -37 72 -85 72 -141c0 -47 -13 -85 -47 -117c-21 -19 -47 -33 -75 -41
c8 -1 53 -9 89 -36c42 -31 63 -81 63 -132c0 -45 -13 -112 -88 -163c-41 -28 -88 -43 -155 -43c-111 0 -186 46 -209 62l36 60c67 -51 135 -58 173 -58c30 0 89 4 124 50c21 27 27 61 27 87c0 43 -8 80 -46 108c-35 26 -68 26 -102 26z" />
    <glyph glyph-name="afii10026" unicode="&#x418;" horiz-adv-x="657" 
d="M567 0h-82v476c0 22 2 93 5 131c-6 -23 -18 -55 -27 -72l-288 -535h-85v686h82v-485c0 -19 -3 -69 -8 -109c9 28 28 72 40 95l265 499h98v-686z" />
    <glyph glyph-name="afii10027" unicode="&#x419;" horiz-adv-x="657" 
d="M567 0h-82v476c0 22 2 93 5 131c-6 -23 -18 -55 -27 -72l-288 -535h-85v686h82v-485c0 -19 -3 -69 -8 -109c9 28 28 72 40 95l265 499h98v-686zM431 861l42 -30c-4 -8 -19 -38 -47 -60c-24 -18 -60 -31 -97 -31s-73 13 -97 31c-28 22 -43 52 -47 60l42 30
c11 -15 29 -32 45 -41c15 -9 35 -14 57 -14s42 5 57 14c16 9 34 26 45 41z" />
    <glyph glyph-name="afii10028" unicode="&#x41a;" horiz-adv-x="594" 
d="M536 694l16 -57l-33 -8c-10 -3 -25 -8 -32 -14c-5 -4 -17 -14 -25 -45l-27 -98c-7 -25 -13 -45 -30 -68c-14 -19 -29 -31 -47 -39v-2c12 -5 27 -13 41 -30c17 -21 27 -47 34 -73l39 -138c5 -18 7 -37 32 -50c9 -5 31 -13 40 -16l20 -6l-15 -57l-56 6c-48 5 -69 21 -82 37
c-18 23 -23 54 -30 87l-22 111c-2 11 -11 52 -33 73c-12 12 -33 24 -68 24h-86v-331h-82v686h82v-288h96c39 0 59 15 66 22c21 20 29 56 32 70l20 99c4 21 14 54 32 72c24 23 55 26 74 28z" />
    <glyph glyph-name="afii10029" unicode="&#x41b;" horiz-adv-x="589" 
d="M241 622l-9 -165c-12 -213 -24 -358 -80 -417c-30 -32 -66 -39 -100 -43l-34 -4l-15 57l20 6c10 3 30 11 40 16c61 31 84 123 100 450l8 164h328v-686h-82v622h-176z" />
    <glyph glyph-name="afii10030" unicode="&#x41c;" horiz-adv-x="795" 
d="M128 686h117l122 -448c15 -57 27 -116 29 -126h2c6 28 20 93 27 118l127 456h118l60 -686h-78l-40 503l-3 45c-2 24 -3 49 -5 73h-2l-28 -109l-144 -512h-70l-170 621h-2c-1 -42 -3 -95 -6 -133l-41 -488h-76z" />
    <glyph glyph-name="afii10031" unicode="&#x41d;" horiz-adv-x="632" 
d="M542 0h-82v332h-288v-332h-82v686h82v-287h288v287h82v-686z" />
    <glyph glyph-name="afii10032" unicode="&#x41e;" horiz-adv-x="672" 
d="M336 698c60 0 140 -19 199 -92c32 -40 77 -118 77 -263s-45 -223 -77 -263c-59 -73 -139 -92 -199 -92s-140 19 -199 92c-32 40 -77 118 -77 263s45 223 77 263c59 73 139 92 199 92zM336 634c-62 0 -111 -26 -144 -82c-18 -30 -40 -87 -40 -209s22 -179 40 -209
c33 -56 82 -82 144 -82s111 26 144 82c18 30 40 87 40 209s-22 179 -40 209c-33 56 -82 82 -144 82z" />
    <glyph glyph-name="afii10033" unicode="&#x41f;" horiz-adv-x="616" 
d="M526 0h-82v622h-272v-622h-82v686h436v-686z" />
    <glyph glyph-name="afii10034" unicode="&#x420;" horiz-adv-x="540" 
d="M90 686h192c63 0 106 -3 150 -32c78 -50 88 -123 88 -164c0 -51 -10 -116 -62 -163c-57 -52 -124 -54 -166 -54h-120v-273h-82v686zM172 340h115c66 0 90 18 107 37c21 23 35 50 35 100c0 51 -15 84 -40 106c-33 29 -79 34 -130 34h-87v-277z" />
    <glyph glyph-name="afii10035" unicode="&#x421;" horiz-adv-x="563" 
d="M489 99l44 -55c-65 -42 -135 -56 -191 -56c-102 0 -166 53 -200 92c-52 60 -82 149 -82 261c0 119 39 209 93 269c62 68 135 88 199 88c37 0 105 -7 169 -56l-44 -53c-50 37 -96 43 -130 43c-67 0 -130 -29 -169 -121c-25 -59 -29 -117 -29 -182c0 -38 1 -93 22 -145
c20 -51 73 -129 184 -129c30 0 80 4 134 44z" />
    <glyph glyph-name="afii10036" unicode="&#x422;" horiz-adv-x="450" 
d="M457 686l-5 -69h-186v-617h-82v617h-184v69h457z" />
    <glyph glyph-name="afii10037" unicode="&#x423;" horiz-adv-x="469" 
d="M67 686l137 -345c13 -32 23 -57 36 -101c8 26 27 84 34 105l113 341h80l-174 -507c-9 -25 -18 -56 -35 -95c-11 -25 -24 -51 -49 -69c-30 -22 -71 -27 -93 -30l-29 -4l-15 58l20 5c10 3 32 11 43 16c18 9 33 22 43 36c11 15 24 46 30 66l10 32l-38 -3l-202 495h89z" />
    <glyph glyph-name="afii10038" unicode="&#x424;" horiz-adv-x="712" 
d="M397 0h-82v111h-16c-70 0 -127 22 -163 52c-70 59 -76 157 -76 205s6 146 76 205c36 30 93 52 163 52h16v101h82v-101h16c70 0 127 -22 163 -52c70 -59 76 -157 76 -205s-6 -146 -76 -205c-36 -30 -93 -52 -163 -52h-16v-111zM395 568v-400h16c36 0 79 5 112 37
c46 44 45 109 45 163s1 119 -45 163c-33 32 -76 37 -112 37h-16zM317 568h-16c-36 0 -79 -5 -112 -37c-46 -44 -45 -109 -45 -163s-1 -119 45 -163c33 -32 76 -37 112 -37h16v400z" />
    <glyph glyph-name="afii10039" unicode="&#x425;" horiz-adv-x="536" 
d="M531 0h-99l-170 315l-161 -315h-96l203 368l-182 318h97l137 -254l131 254h96l-172 -312z" />
    <glyph glyph-name="afii10040" unicode="&#x426;" horiz-adv-x="636" 
d="M90 686h82v-622h272v622h82v-622h70v-246h-82v182h-424v686z" />
    <glyph glyph-name="afii10041" unicode="&#x427;" horiz-adv-x="590" 
d="M500 0h-82v308c-50 -23 -102 -33 -156 -33c-30 0 -98 3 -143 48c-24 24 -44 62 -44 118v245h82v-235c0 -18 1 -61 33 -88c24 -20 64 -24 86 -24c48 0 90 10 142 30v317h82v-686z" />
    <glyph glyph-name="afii10042" unicode="&#x428;" horiz-adv-x="838" 
d="M90 686h80v-624h209v624h80v-624h209v624h80v-686h-658v686z" />
    <glyph glyph-name="afii10043" unicode="&#x429;" horiz-adv-x="858" 
d="M748 62h70v-244h-80v182h-648v686h80v-624h209v624h80v-624h209v624h80v-624z" />
    <glyph glyph-name="afii10044" unicode="&#x42a;" horiz-adv-x="666" 
d="M274 408h103c43 0 119 -2 174 -40c38 -26 80 -78 80 -163c0 -70 -29 -126 -69 -159c-49 -39 -115 -46 -175 -46h-195v621h-196l-6 65h284v-278zM274 65h125c33 0 70 2 102 29c22 19 44 54 44 109c0 72 -36 105 -58 119c-34 21 -69 21 -105 21h-108v-278z" />
    <glyph glyph-name="afii10045" unicode="&#x42b;" horiz-adv-x="799" 
d="M709 686v-686h-82v686h82zM172 686v-278h103c43 0 119 -2 174 -40c38 -26 80 -78 80 -163c0 -70 -29 -126 -69 -159c-49 -39 -115 -46 -175 -46h-195v686h82zM172 62h120c37 0 88 5 122 43c22 26 33 65 33 98c0 65 -29 100 -58 118c-35 22 -76 25 -109 25h-108v-284z" />
    <glyph glyph-name="afii10046" unicode="&#x42c;" horiz-adv-x="564" 
d="M172 686v-278h103c43 0 119 -2 174 -40c38 -26 80 -78 80 -163c0 -70 -29 -126 -69 -159c-49 -39 -115 -46 -175 -46h-195v686h82zM172 65h125c33 0 70 2 102 29c22 19 44 54 44 109c0 72 -36 105 -58 119c-34 21 -69 21 -105 21h-108v-278z" />
    <glyph glyph-name="afii10047" unicode="&#x42d;" horiz-adv-x="577" 
d="M167 389h257v18c0 61 -20 134 -55 173c-45 49 -107 54 -137 54c-56 0 -102 -14 -155 -52l-33 54c71 55 148 62 187 62c103 0 166 -46 199 -82c79 -85 87 -206 87 -268c0 -146 -48 -239 -100 -288c-48 -45 -119 -72 -196 -72c-39 0 -82 8 -126 26c-26 11 -46 23 -63 35
l36 62c67 -52 125 -59 157 -59c74 0 121 30 146 58c51 57 53 152 53 199v16h-257v64z" />
    <glyph glyph-name="afii10048" unicode="&#x42e;" horiz-adv-x="881" 
d="M172 399h118c3 38 17 134 74 207c56 73 130 92 189 92c60 0 135 -19 192 -92c42 -53 76 -136 76 -263s-34 -210 -76 -263c-57 -73 -132 -92 -192 -92c-59 0 -133 19 -189 92c-49 63 -77 160 -76 252h-116v-332h-82v686h82v-287zM553 634c-80 0 -121 -47 -140 -81
c-31 -56 -36 -157 -36 -210s5 -154 36 -210c19 -34 60 -81 140 -81s121 47 140 81c31 56 36 157 36 210s-5 154 -36 210c-19 34 -60 81 -140 81z" />
    <glyph glyph-name="afii10049" unicode="&#x42f;" horiz-adv-x="606" 
d="M516 0h-82v310h-107c-35 0 -56 -12 -68 -24c-21 -20 -29 -55 -33 -73l-18 -90c-5 -27 -11 -63 -30 -87c-14 -17 -37 -32 -82 -37l-56 -6l-15 57l20 6c9 3 31 11 40 16c15 8 23 17 32 49l30 112c8 31 19 56 35 73c12 13 32 29 62 36v2c-34 4 -65 18 -86 35
c-36 29 -56 74 -56 121c0 50 21 109 67 144c45 34 96 42 174 42h173v-686zM433 622h-92c-26 0 -63 -3 -96 -22c-36 -21 -57 -55 -57 -107s29 -80 47 -93c37 -26 80 -26 112 -26h86v248z" />
    <glyph glyph-name="afii10065" unicode="&#x430;" horiz-adv-x="519" 
d="M467 37l-40 -56c-34 11 -59 38 -68 73c-55 -58 -107 -66 -144 -66c-101 0 -160 54 -160 141c0 55 22 100 71 133c58 38 138 46 194 46c13 0 24 0 34 -1v35v20c0 22 -2 41 -18 60c-19 22 -45 25 -65 25c-35 0 -68 -11 -89 -19c-25 -10 -47 -22 -70 -40l-39 56
c28 18 64 37 98 49c32 11 69 18 108 18c94 0 129 -45 141 -78c9 -26 11 -59 11 -87v-23l-4 -164c0 -13 -1 -26 -1 -37c0 -39 5 -68 41 -85zM349 123l3 130l-13 1c-8 1 -17 1 -27 1c-46 0 -108 -7 -139 -37c-28 -26 -31 -61 -31 -82c0 -36 11 -56 22 -67
c14 -14 36 -23 63 -23c45 0 95 25 122 77z" />
    <glyph glyph-name="afii10066" unicode="&#x431;" horiz-adv-x="545" 
d="M441 772l32 -65c-52 -29 -71 -36 -100 -49l-144 -65c-29 -13 -52 -29 -71 -62c-14 -23 -25 -57 -28 -88l-3 -31l5 -1c10 18 27 40 55 58c32 21 64 29 96 29c77 0 127 -35 153 -69c36 -46 54 -119 54 -187c0 -67 -17 -140 -57 -186c-32 -38 -89 -68 -158 -68
c-70 0 -125 30 -158 70c-55 66 -57 158 -57 226c0 124 10 198 33 252c24 59 68 108 146 143l134 60zM275 434c-62 0 -93 -39 -105 -62c-11 -20 -23 -56 -23 -130c0 -73 12 -109 23 -129c17 -30 51 -61 105 -61s88 31 105 61c11 20 23 56 23 129c0 74 -12 110 -23 130
c-12 23 -43 62 -105 62z" />
    <glyph glyph-name="afii10067" unicode="&#x432;" horiz-adv-x="509" 
d="M83 498h197c35 0 68 -3 100 -24c44 -29 51 -77 51 -104c0 -31 -10 -55 -28 -75c-9 -10 -25 -23 -49 -31c25 -5 51 -17 69 -36c22 -22 31 -50 31 -86c0 -53 -23 -85 -41 -102c-39 -36 -97 -40 -128 -40h-202v498zM161 440v-153h117c21 0 46 9 60 24c9 10 18 26 18 52
c0 31 -12 49 -23 59c-12 11 -31 18 -53 18h-119zM161 231v-173h123c36 0 57 11 69 23c7 7 22 26 22 64c0 22 -4 49 -29 68c-15 11 -38 18 -62 18h-123z" />
    <glyph glyph-name="afii10068" unicode="&#x433;" horiz-adv-x="376" 
d="M161 428v-428h-78v498h283l-11 -70h-194z" />
    <glyph glyph-name="afii10069" unicode="&#x434;" horiz-adv-x="508" 
d="M481 60v-203h-76v143h-312v-143h-76v203h36c56 102 81 210 84 346l2 92h280v-438h62zM341 438h-134l-3 -72c-4 -87 -21 -194 -76 -306h213v378z" />
    <glyph glyph-name="afii10070" unicode="&#x435;" horiz-adv-x="511" 
d="M461 235h-311v-11c0 -27 0 -72 23 -109c23 -38 69 -61 124 -61c28 0 78 6 122 47l30 -50c-48 -41 -106 -63 -168 -63c-86 0 -134 38 -162 71c-49 59 -59 126 -59 195c0 52 8 118 51 176c30 41 80 80 158 80c61 0 109 -25 135 -52c28 -28 40 -67 43 -76
c8 -28 14 -66 14 -135v-12zM150 295h228c1 30 -5 83 -23 111c-15 23 -47 44 -90 44c-42 0 -70 -18 -89 -48c-18 -28 -27 -73 -26 -107z" />
    <glyph glyph-name="afii10072" unicode="&#x436;" horiz-adv-x="664" 
d="M371 289h49c20 0 32 2 45 15c4 4 16 16 22 47l15 76c4 19 11 39 23 52c9 10 25 21 60 24l44 4l14 -50l-30 -7c-7 -2 -15 -4 -22 -11c-9 -9 -14 -23 -15 -28l-21 -75c-4 -14 -8 -34 -23 -50c-9 -10 -24 -19 -37 -24v-3c13 -5 24 -12 32 -21c16 -17 22 -35 27 -54l26 -94
c3 -11 9 -26 21 -33c4 -3 11 -5 29 -11l19 -6l-13 -49l-54 4c-18 1 -46 7 -64 30c-12 16 -18 36 -23 64l-13 75c-3 20 -7 35 -23 50c-18 16 -34 15 -46 15h-42v-229h-78v229h-42c-12 0 -28 1 -46 -15c-16 -15 -20 -30 -23 -50l-13 -75c-5 -28 -11 -48 -23 -64
c-18 -23 -46 -29 -64 -30l-54 -4l-13 49l19 6c18 6 25 8 29 11c12 7 18 22 21 33l26 94c5 19 11 37 27 54c8 9 19 16 32 21v3c-13 5 -28 14 -37 24c-15 16 -19 36 -23 50l-21 75c-1 5 -6 19 -15 28c-7 7 -15 9 -22 11l-30 7l14 50l44 -4c35 -3 51 -14 60 -24
c12 -13 19 -33 23 -52l15 -76c6 -31 18 -43 22 -47c13 -13 25 -15 45 -15h49v205l78 15v-220z" />
    <glyph glyph-name="afii10073" unicode="&#x437;" horiz-adv-x="436" 
d="M137 293h43c28 0 67 7 84 20c15 12 27 36 27 62c0 27 -14 44 -26 53c-18 13 -48 18 -71 18c-25 0 -52 -4 -73 -11c-17 -6 -35 -14 -50 -24l-29 55c21 13 42 22 68 30c28 8 59 14 94 14c45 0 89 -10 119 -32c31 -23 49 -59 49 -98c0 -25 -9 -52 -26 -72
c-15 -17 -42 -33 -68 -41c27 -6 55 -21 74 -39c16 -16 34 -42 34 -84c0 -75 -47 -112 -70 -126c-36 -22 -84 -30 -123 -30c-71 0 -131 25 -173 52l30 58c63 -43 117 -46 139 -46c44 0 70 12 85 26c12 11 26 31 26 65c0 32 -8 56 -33 72c-23 15 -54 18 -79 18h-51v60z" />
    <glyph glyph-name="afii10074" unicode="&#x438;" horiz-adv-x="550" 
d="M80 0v494l78 15v-308l-3 -108h3c16 39 32 71 51 102l181 303l80 11v-509h-78v297l3 106h-3c-16 -37 -31 -66 -51 -99l-181 -304h-80z" />
    <glyph glyph-name="afii10075" unicode="&#x439;" horiz-adv-x="550" 
d="M80 0v494l78 15v-308l-3 -108h3c16 39 32 71 51 102l181 303l80 11v-509h-78v297l3 106h-3c-16 -37 -31 -66 -51 -99l-181 -304h-80zM384 724l45 -33c-24 -53 -73 -99 -154 -99c-58 0 -118 23 -154 99l45 33c14 -23 29 -38 48 -49c21 -12 40 -14 61 -14c20 0 40 2 61 14
c18 11 38 32 48 49z" />
    <glyph glyph-name="afii10076" unicode="&#x43a;" horiz-adv-x="491" 
d="M80 0v494l78 15v-220h84c20 0 32 2 45 15c4 4 16 16 22 47l15 76c4 19 11 39 23 52c9 10 25 21 60 24l44 4l14 -50l-30 -7c-7 -2 -15 -4 -22 -11c-9 -9 -14 -23 -15 -28l-21 -75c-4 -14 -8 -34 -23 -50c-9 -10 -24 -19 -37 -24v-3c13 -5 24 -12 32 -21
c16 -17 22 -35 27 -54l26 -94c3 -11 9 -26 21 -33c4 -3 11 -5 29 -11l19 -6l-13 -49l-54 4c-18 1 -46 7 -64 30c-12 16 -18 36 -23 64l-13 75c-3 20 -7 35 -23 50c-18 16 -34 15 -46 15h-77v-229h-78z" />
    <glyph glyph-name="afii10077" unicode="&#x43b;" horiz-adv-x="496" 
d="M144 498h272v-498h-78v438h-129l-6 -77c-2 -32 -12 -115 -16 -147c-4 -35 -9 -66 -15 -96c-9 -45 -14 -74 -41 -97c-25 -22 -60 -26 -72 -27l-33 -3l-13 49l19 6c12 4 20 8 29 13c30 18 40 38 53 142c17 136 16 142 19 179z" />
    <glyph glyph-name="afii10078" unicode="&#x43c;" horiz-adv-x="657" 
d="M102 498h104l92 -286c7 -21 23 -72 30 -112c5 19 21 80 28 103l94 295h104l48 -498h-79l-29 338c-2 23 -3 77 -3 84h-4c-3 -27 -13 -64 -17 -76l-111 -346h-65l-109 342c-6 20 -18 65 -21 80h-4c-1 -48 -2 -59 -2 -63l-28 -359h-75z" />
    <glyph glyph-name="afii10079" unicode="&#x43d;" horiz-adv-x="532" 
d="M158 236v-236h-78v494l78 15v-213h216v198l78 15v-509h-78v236h-216z" />
    <glyph glyph-name="afii10080" unicode="&#x43e;" horiz-adv-x="540" 
d="M270 510c57 0 120 -25 158 -70c40 -47 57 -122 57 -191c0 -82 -21 -148 -57 -190c-39 -47 -100 -71 -158 -71s-119 24 -158 71c-36 42 -57 108 -57 190c0 69 17 144 57 191c38 45 101 70 158 70zM270 446c-62 0 -92 -39 -105 -63c-8 -15 -23 -50 -23 -134
s15 -119 23 -134c13 -24 43 -63 105 -63s92 39 105 63c8 15 23 50 23 134s-15 119 -23 134c-13 24 -43 63 -105 63z" />
    <glyph glyph-name="afii10081" unicode="&#x43f;" horiz-adv-x="521" 
d="M158 438v-438h-78v498h361v-498h-78v438h-205z" />
    <glyph glyph-name="afii10082" unicode="&#x440;" horiz-adv-x="559" 
d="M79 497l80 14c3 -25 5 -50 5 -76c40 53 97 75 147 75c77 0 117 -43 133 -64c39 -49 55 -112 55 -196c0 -45 -3 -114 -40 -172c-25 -40 -76 -90 -154 -90c-41 0 -96 15 -137 57v-238l-78 -15v598c0 45 -3 75 -11 107zM168 368v-251c26 -30 70 -65 122 -65
c47 0 86 24 105 62c20 41 21 99 21 117c0 81 -10 124 -23 151c-9 19 -32 58 -92 58c-48 0 -99 -25 -133 -72z" />
    <glyph glyph-name="afii10083" unicode="&#x441;" horiz-adv-x="459" 
d="M376 105l43 -50c-17 -18 -42 -39 -69 -51c-22 -10 -50 -16 -86 -16c-80 0 -125 33 -156 76c-29 41 -48 96 -48 177c0 108 35 176 79 217c45 43 93 53 132 53c33 0 85 -7 135 -54l-43 -54c-39 38 -76 40 -91 40c-19 0 -59 -3 -88 -42c-26 -34 -37 -90 -37 -168
c0 -44 4 -97 30 -136c26 -38 64 -46 92 -46c27 0 52 9 72 22c13 8 25 20 35 32z" />
    <glyph glyph-name="afii10084" unicode="&#x442;" horiz-adv-x="363" 
d="M217 434v-434h-78v434h-144v64h373l-7 -64h-144z" />
    <glyph glyph-name="afii10085" unicode="&#x443;" horiz-adv-x="449" 
d="M87 513l102 -323c12 -39 23 -85 30 -124h2c15 52 22 74 31 105l98 327h89l-171 -516c-14 -42 -32 -88 -59 -122c-25 -31 -55 -50 -89 -61l-13 -4l-23 53c27 7 51 22 66 39c11 12 29 38 45 99l4 15l-32 -5c-12 54 -39 147 -50 179l-107 312z" />
    <glyph glyph-name="afii10086" unicode="&#x444;" horiz-adv-x="714" 
d="M396 732v-260c29 27 66 40 93 40c43 0 90 -20 122 -65c28 -39 48 -102 48 -195c0 -53 -7 -131 -46 -191c-40 -63 -93 -75 -132 -75c-26 0 -55 7 -85 32v-215h-78v215c-30 -25 -59 -32 -85 -32c-39 0 -92 12 -132 75c-39 60 -46 138 -46 191c0 93 20 156 48 195
c32 45 79 65 122 65c27 0 64 -13 93 -40v245zM394 415v-339c26 -22 55 -30 79 -30c21 0 50 3 73 32c33 41 31 114 31 170c0 77 -1 134 -29 170c-13 17 -37 34 -71 34c-28 0 -60 -14 -83 -37zM320 76v339c-23 23 -55 37 -83 37c-34 0 -58 -17 -71 -34
c-28 -36 -29 -93 -29 -170c0 -56 -2 -129 31 -170c23 -29 52 -32 73 -32c24 0 53 8 79 30z" />
    <glyph glyph-name="afii10087" unicode="&#x445;" 
d="M457 0h-95l-135 212l-135 -212h-92l186 276l-154 222h96l99 -166l96 166h91l-148 -222z" />
    <glyph glyph-name="afii10088" unicode="&#x446;" horiz-adv-x="546" 
d="M80 494l78 15v-449h198v434l78 15v-449h62v-207h-76v147h-340v494z" />
    <glyph glyph-name="afii10089" unicode="&#x447;" horiz-adv-x="493" 
d="M138 509v-189c0 -12 2 -38 26 -56c18 -13 49 -18 71 -18c32 0 70 5 100 20v228l78 15v-509h-78v207c-47 -17 -70 -21 -113 -21c-38 0 -95 7 -131 47c-30 33 -31 69 -31 100v161z" />
    <glyph glyph-name="afii10090" unicode="&#x448;" horiz-adv-x="728" 
d="M80 494l78 15v-451h167v436l78 15v-451h167v436l78 15v-509h-568v494z" />
    <glyph glyph-name="afii10091" unicode="&#x449;" horiz-adv-x="760" 
d="M80 494l78 15v-451h167v436l78 15v-451h167v436l78 15v-451h62v-205h-76v147h-554v494z" />
    <glyph glyph-name="afii10092" unicode="&#x44a;" horiz-adv-x="537" 
d="M224 306h75c40 0 108 -1 157 -44c35 -30 46 -67 46 -111c0 -42 -11 -82 -51 -114c-37 -30 -80 -37 -122 -37h-183v434h-144l-7 64h229v-192zM224 246v-186h93c36 0 60 13 73 24c21 18 30 42 30 68c0 33 -10 56 -28 71c-25 22 -56 23 -85 23h-83z" />
    <glyph glyph-name="afii10093" unicode="&#x44b;" horiz-adv-x="667" 
d="M158 509v-203h83c53 0 102 -8 141 -40c37 -30 50 -67 50 -115c0 -40 -11 -81 -52 -114c-42 -34 -90 -37 -115 -37h-185v494zM158 246v-186h92c38 0 62 13 75 24c12 11 28 31 28 68c0 36 -13 58 -27 70c-26 23 -62 24 -89 24h-79zM509 494l78 15v-509h-78v494z" />
    <glyph glyph-name="afii10094" unicode="&#x44c;" horiz-adv-x="477" 
d="M158 509v-203h75c48 0 114 -1 163 -44c35 -30 46 -67 46 -111c0 -42 -11 -82 -51 -114c-37 -30 -80 -37 -122 -37h-189v494zM157 246v-186h101c36 0 60 13 73 24c21 18 30 42 30 68c0 33 -10 56 -28 71c-25 22 -56 23 -85 23h-91z" />
    <glyph glyph-name="afii10095" unicode="&#x44d;" horiz-adv-x="468" 
d="M43 54l41 47c31 -36 73 -55 122 -55c20 0 56 3 83 31c28 29 37 82 37 122v35h-169v60h169v18c0 35 -10 78 -33 104c-16 18 -45 36 -91 36c-44 0 -78 -18 -104 -42l-42 46c51 47 115 54 150 54c44 0 94 -10 139 -56c37 -38 68 -102 68 -193c0 -131 -43 -189 -61 -209
c-46 -52 -101 -64 -150 -64s-107 12 -159 66z" />
    <glyph glyph-name="afii10096" unicode="&#x44e;" horiz-adv-x="710" 
d="M161 291h84c4 52 23 113 51 149c31 40 85 70 151 70c67 0 121 -30 153 -70c5 -7 55 -70 55 -191s-50 -184 -55 -191c-32 -40 -86 -70 -153 -70c-66 0 -120 30 -151 70s-52 113 -53 173h-82v-231h-78v494l78 15v-218zM447 450c-51 0 -83 -31 -99 -61
c-8 -15 -22 -50 -22 -140c0 -41 4 -103 22 -139c11 -22 40 -62 99 -62c52 0 83 31 99 61c8 15 22 50 22 140c0 95 -16 134 -29 153c-16 24 -47 48 -92 48z" />
    <glyph glyph-name="afii10097" unicode="&#x44f;" horiz-adv-x="506" 
d="M250 498h166v-498h-78v215h-68c-16 0 -33 0 -50 -15c-15 -13 -22 -32 -27 -49l-20 -68c-7 -25 -15 -47 -28 -62c-11 -12 -29 -24 -71 -27l-41 -3l-13 49l19 6c8 2 24 10 30 14c14 10 17 21 23 37l28 73c3 9 14 34 26 49c7 8 18 18 36 24v2c-26 3 -58 15 -79 36
c-20 20 -32 51 -32 79s8 70 49 103c42 34 87 35 130 35zM338 275v163h-87c-28 0 -59 -1 -79 -23c-12 -13 -19 -34 -19 -58c0 -26 6 -46 25 -61c23 -19 57 -21 81 -21h79z" />
    <glyph glyph-name="Acute" unicode="&#xf6c9;" horiz-adv-x="350" 
d="M300 829l-224 -100l-26 47l207 130z" />
    <glyph glyph-name="Delta" unicode="&#x2206;" horiz-adv-x="614" 
d="M574 0h-534l221 588h88zM472 65l-169 446l-163 -446h332z" />
    <glyph glyph-name="Dieresis" unicode="&#xf6cb;" horiz-adv-x="410" 
d="M360 785c0 -29 -24 -53 -51 -53c-28 0 -53 25 -53 53c0 27 23 51 52 51c28 0 52 -24 52 -51zM153 785c0 -21 -16 -53 -51 -53c-28 0 -52 24 -52 53c0 27 24 51 51 51c28 0 52 -24 52 -51z" />
    <glyph glyph-name="acute" unicode="&#xb4;" horiz-adv-x="350" 
d="M300 665l-224 -100l-26 47l207 130z" />
    <glyph glyph-name="approxequal" unicode="&#x2248;" horiz-adv-x="560" 
d="M476 434l34 -50c-31 -42 -64 -68 -126 -68c-77 0 -143 66 -216 66c-44 0 -60 -23 -84 -50l-34 50c30 42 63 68 125 68c77 0 144 -66 216 -66c44 0 62 17 85 50zM476 253l34 -50c-31 -42 -64 -68 -126 -68c-77 0 -143 66 -216 66c-44 0 -60 -23 -84 -50l-34 50
c30 42 63 68 125 68c77 0 144 -66 216 -66c44 0 62 17 85 50z" />
    <glyph glyph-name="cyrBreve" unicode="&#xf6d1;" horiz-adv-x="460" 
d="M329 861l41 -30c-11 -23 -28 -46 -46 -60c-23 -18 -57 -31 -94 -31s-71 13 -94 31c-18 14 -35 37 -46 60l41 30c12 -16 25 -30 44 -41c18 -10 36 -14 55 -14s37 4 55 14c19 11 32 25 44 41z" />
    <glyph glyph-name="cyrbreve" unicode="&#xf6d4;" horiz-adv-x="468" 
d="M343 724l45 -33c-24 -53 -73 -99 -154 -99c-58 0 -118 23 -154 99l45 33c14 -23 29 -38 48 -49c21 -12 40 -14 61 -14c20 0 40 2 61 14c18 11 38 32 48 49z" />
    <glyph glyph-name="dieresis" unicode="&#xa8;" horiz-adv-x="410" 
d="M360 621c0 -29 -24 -53 -51 -53c-28 0 -53 25 -53 53c0 27 23 51 52 51c28 0 52 -24 52 -51zM153 621c0 -21 -16 -53 -51 -53c-28 0 -52 24 -52 53c0 27 24 51 51 51c28 0 52 -24 52 -51z" />
    <glyph glyph-name="divide" unicode="&#xf7;" horiz-adv-x="600" 
d="M369 472c0 -38 -30 -68 -67 -68s-67 29 -67 66c0 38 30 69 68 69c36 0 66 -30 66 -67zM550 235h-500v65h500v-65zM369 56c0 -38 -30 -68 -68 -68c-37 0 -66 30 -66 67c0 38 30 68 68 68c36 0 66 -30 66 -67z" />
    <glyph glyph-name="dotaccent" unicode="&#x2d9;" horiz-adv-x="242" 
d="M182 652c0 -33 -28 -61 -61 -61s-61 27 -61 60s28 62 61 62s61 -28 61 -61z" />
    <glyph glyph-name="dotlessi" unicode="&#x131;" horiz-adv-x="261" 
d="M171 0h-81v496l81 13v-509z" />
    <glyph glyph-name="florin" unicode="&#x192;" horiz-adv-x="314" 
d="M364 695l-33 -55c-17 11 -44 23 -69 23c-42 0 -68 -31 -72 -88l-5 -77h134l-28 -59h-110l-26 -384c-9 -137 -9 -184 -128 -253l-37 56c89 55 82 97 88 190l25 391h-46v59h50l5 78c4 69 29 98 62 122c24 17 51 26 86 26c41 0 90 -20 104 -29z" />
    <glyph glyph-name="greaterequal" unicode="&#x2265;" 
d="M407 263l-367 -139v74l276 101l-276 124v75l367 -172v-63zM407 36h-367v71h367v-71z" />
    <glyph glyph-name="infinity" unicode="&#x221e;" horiz-adv-x="897" 
d="M453 300l84 60c50 35 106 57 159 57c70 0 171 -33 171 -155c0 -115 -94 -161 -178 -161c-58 0 -112 24 -156 55l-87 61l-84 -60c-53 -38 -103 -57 -160 -57c-70 0 -172 32 -172 154c0 115 95 162 179 162c56 0 113 -26 163 -60zM508 261l81 -55c30 -21 62 -36 99 -36
c76 0 99 51 99 91c0 50 -39 90 -99 90c-37 0 -83 -19 -118 -45zM390 255l-80 56c-30 21 -64 35 -101 35c-76 0 -99 -51 -99 -91c0 -50 39 -90 99 -90c37 0 82 20 118 45z" />
    <glyph glyph-name="lessequal" unicode="&#x2264;" 
d="M407 124l-367 139v63l367 172v-75l-276 -124l276 -101v-74zM407 36h-367v71h367v-71z" />
    <glyph glyph-name="nbspace" unicode="&#xe000;" horiz-adv-x="230" 
 />
    <glyph glyph-name="notequal" unicode="&#x2260;" horiz-adv-x="622" 
d="M572 192h-293l-109 -179l-46 30l91 149h-165v66h205l55 90h-260v66h300l109 179l46 -30l-91 -149h158v-66h-198l-55 -90h253v-66z" />
    <glyph glyph-name="radical" unicode="&#x221a;" horiz-adv-x="527" 
d="M527 695l-248 -695h-71l-149 439h-59v59h120l82 -252c20 -60 41 -133 44 -153c4 17 16 69 42 143l160 459h79z" />
    <glyph glyph-name="sterling" unicode="&#xa3;" horiz-adv-x="553" 
d="M533 658l-55 -59c-31 30 -64 49 -108 49c-99 0 -128 -70 -128 -174v-78h162v-66h-162v-252h246v-78h-438v78h108v252h-96v66h96v80c0 174 93 244 214 244c60 0 118 -19 161 -62z" />
    </font>
</defs>
</svg>
